<?xml version="1.0" encoding="UTF-8"?>
<svg id="Capa_1" data-name="Capa 1" xmlns="http://www.w3.org/2000/svg" viewBox="0 0 355.83 414.59">
  <defs>
    <style>
      .cls-1 {
        fill: #2c4b82;
      }
    </style>
  </defs>
  <path class="cls-1" d="M317.33,195.09c-1.59-1.62-1.57-32.88.02-34.46,0,0,32.03-18.75,32.34-19.04,5.12-4.96,7.47-14.14,5.35-20.9-.04-.15-.1-.29-.16-.44l-11.18-27.01c-.05-.13-.12-.27-.18-.4-3.24-6.28-11.26-11.19-18.42-11.19-.46,0-36.96,9.75-36.96,9.75-3.13-.53-23.71-23.05-23.8-24.39,0,0,9.39-35.84,9.4-36.27.11-7.13-4.72-15.26-11-18.5-.13-.06-.26-.13-.39-.18L235.45.9c-.14-.06-.28-.11-.43-.16-6.58-2.08-16.06.38-20.86,5.35-.29.3-19.03,32.36-19.03,32.36-1.63,1.59-32.43,1.67-34.48-.09,0,0-18.68-31.97-18.98-32.27-4.8-4.97-14.26-7.42-20.86-5.36-.15.05-.3.1-.44.16l-26.91,11.18c-.13.06-.26.12-.39.18-6.28,3.24-11.11,11.36-11,18.5,0,.42,9.42,36.35,9.42,36.35-.03.81-21.18,23.88-23.93,24.27,0,0-36.55-9.73-37.01-9.73-7,0-15.02,4.91-18.26,11.19-.06.13-.13.27-.19.4L.93,120.35c-.05.14-.11.28-.15.42-2.14,6.79.25,16,5.44,20.94.24.23,32.39,21.11,32.39,21.11,1.51,1.71,1.53,30.32-.21,32.32,0,0-31.97,18.68-32.27,18.98-5.12,4.96-7.47,14.12-5.35,20.86.05.15.1.3.16.44l11.17,26.91c.05.13.12.26.18.39,3.19,6.17,11.21,11,18.48,11,0,0,36.38-9.43,36.38-9.43,2.89.03,24.23,23.1,24.31,24.44,0,0-9.39,35.84-9.4,36.27-.11,7.13,4.72,15.26,11,18.5.13.06.26.13.39.18l26.91,11.17c.14.06.28.11.43.16,6.58,2.08,16.06-.38,20.86-5.35.29-.3,19.03-32.37,19.03-32.37,1.63-1.59,32.41-1.68,34.48.1,0,0,18.68,31.97,18.98,32.27,3.6,3.72,9.67,6.14,15.47,6.14,1.94,0,3.75-.26,5.4-.78.15-.04.29-.1.43-.16l26.91-11.17c.13-.06.27-.12.39-.18,6.28-3.24,11.11-11.36,11-18.5,0-.42-9.42-36.36-9.42-36.36.02-.8,21.36-24.25,24.35-24.34,0,0,36.01,9.43,36.46,9.43,7.13,0,15.21-4.83,18.39-11,.06-.13.13-.26.18-.39l11.18-26.91c.06-.15.12-.29.16-.44,2.12-6.73-.24-15.9-5.35-20.85-.31-.28-32.37-19.02-32.37-19.02ZM176.75,273.08c-50.84,0-92.21-41.37-92.21-92.21s41.36-92.22,92.21-92.22,92.21,41.37,92.21,92.22-41.36,92.21-92.21,92.21Z"/>
</svg>