<?xml version="1.0" encoding="UTF-8"?>
<svg id="Capa_1" data-name="Capa 1" xmlns="http://www.w3.org/2000/svg" viewBox="0 0 335.13 372.22">
  <defs>
    <style>
      .cls-1 {
        fill: #2c4b82;
      }
    </style>
  </defs>
  <g>
    <path class="cls-1" d="M180.15,0c11.39,2.8,23.3,4.27,34.09,8.65,44.41,18,71.23,51.7,80.3,100.17,4.17,22.29,1.89,44.17-5.04,65.65-.73,2.28-.59,5.3.19,7.6,14.56,42.86,29.28,85.66,43.96,128.47.18.51.32,1.02.48,1.53,3.49,10.79-2.46,17.89-13.35,15.66-12.05-2.47-24.04-5.26-36.06-7.89-7.79-1.7-15.65-3.11-23.34-5.17-3.18-.85-4.65.21-6.42,2.57-12.21,16.28-24.59,32.42-36.8,48.7-3.06,4.09-6.44,7.05-11.79,6.09-5.14-.92-7.25-4.83-8.87-9.45-8.83-25.22-17.76-50.41-26.66-75.61-.53-1.49-1.1-2.97-2.08-5.62-1.29,2.65-2.21,4.42-3.03,6.23-10.69,23.66-21.4,47.32-32.03,71.01-2.13,4.74-4.47,8.96-10.25,9.32-5.73.35-8.65-3.45-11.4-7.85-10.6-17-21.39-33.89-31.92-50.94-1.88-3.04-3.71-3.72-7.15-3.25-20.26,2.79-40.54,5.32-60.84,7.75-9.51,1.14-14.94-7.34-10.7-16.75,10.81-24,21.77-47.93,32.67-71.89,5.67-12.47,11.25-24.98,17.05-37.38,1.46-3.11,1.6-5.7.39-9.04-13.24-36.48-11.29-72.24,5.29-107.18,3.01-6.34,7.62-9.01,12.72-7.61,6.82,1.87,9.14,8.6,6.33,16.4-3.73,10.35-8.16,20.64-10.18,31.39-13.87,73.77,49.48,140.38,120.99,127.68,80.28-14.26,116.02-109.79,66-176.4-29.29-39-84.53-52.48-127.62-31.14-1.72.85-3.39,1.81-5.14,2.57-6.39,2.77-12.09.96-14.66-4.6-2.62-5.68-.54-11.31,5.65-14.69,11.72-6.41,24.14-10.7,37.22-12.98,3.74-.65,7.47-1.35,11.2-2.02h20.8ZM309.02,303.14c-11.39-33.25-22.46-65.59-33.86-98.86-22.83,33.02-52.78,51.96-91.11,57.29,9.18,26.02,18.23,51.69,27.55,78.14,11.16-14.72,21.68-28.46,32.03-42.34,3.82-5.12,8.24-6.82,14.49-5.36,16.51,3.87,33.13,7.28,50.89,11.13M121.37,335.07c11.22-24.89,22.11-49.05,33.18-73.61-37.36-5.47-66.51-23.89-88.93-55.15-12.79,28.14-25.18,55.37-37.81,83.14,1.7,0,2.68.1,3.64-.02,15.99-1.93,31.98-3.75,47.94-5.91,6.11-.83,10.26,1.28,13.52,6.58,7.89,12.83,16,25.53,24.03,38.27,1.3,2.06,2.68,4.06,4.42,6.71"/>
    <path class="cls-1" d="M124.82,184.2c1.48-8.95,3.38-19.33,4.77-29.78.3-2.2-.58-5.32-2.04-6.9-6.45-7-13.29-13.62-20.04-20.32-3.52-3.48-5.47-7.48-3.84-12.51,1.55-4.79,5.18-6.8,9.87-7.44,9.09-1.25,18.15-2.83,27.25-4.03,3.21-.42,5.24-1.58,6.67-4.83,3.8-8.62,8.04-17.04,12.05-25.57,2.12-4.5,5.11-7.67,10.31-7.63,5.2.05,8.11,3.31,10.21,7.8,3.91,8.38,8.06,16.64,11.84,25.08,1.48,3.31,3.51,4.75,7.01,5.18,9.28,1.15,18.5,2.75,27.76,4.09,4.54.66,7.83,2.99,9.25,7.51,1.43,4.56-.12,8.45-3.32,11.69-6.93,7.02-14.03,13.88-20.76,21.1-1.37,1.47-2.21,4.38-1.94,6.44,1.2,9.04,2.92,18,4.4,27,.87,5.28,1.23,10.51-3.74,14.09-4.88,3.51-9.5,1.71-14.12-.88-7.46-4.17-15.08-8.04-22.45-12.37-3.11-1.83-5.55-1.63-8.58.1-8.33,4.76-16.73,9.42-25.28,13.73-7.95,4.01-15.55-1.14-15.28-11.55M148.8,166.84c5.21-2.83,9.58-4.99,13.73-7.53,5-3.05,9.72-2.91,14.67.1,4.15,2.53,8.51,4.69,13.45,7.38-.89-5.67-1.3-10.66-2.5-15.44-1.54-6.17.21-10.84,4.7-14.81,3.57-3.16,7.04-6.44,10.55-9.66-.35-.5-.7-1-1.05-1.5-4.77-.7-9.52-1.51-14.31-2.07-5.5-.65-9.19-3.44-11.42-8.76-1.93-4.61-4.36-9-6.95-14.24-2.43,5.05-4.62,8.93-6.2,13.06-2.53,6.62-7.1,9.72-13.84,10.23-4.26.32-8.49,1.23-14,2.06,4.66,4.62,8.47,8.43,12.31,12.21,3.41,3.36,4.65,7.3,3.65,12.17-1.07,5.22-1.77,10.53-2.8,16.79"/>
    <path class="cls-1" d="M97.7,46.27c-.16,5.57-5.16,10.57-10.48,10.47-5.64-.11-10.34-5.36-10.11-11.29.23-5.81,4.92-10.26,10.6-10.04,5.5.21,10.15,5.27,9.99,10.85"/>
  </g>
  <g>
    <path class="cls-1" d="M180.15,0c11.39,2.8,23.3,4.27,34.09,8.65,44.41,18,71.23,51.7,80.3,100.17,4.17,22.29,1.89,44.17-5.04,65.65-.73,2.28-.59,5.3.19,7.6,14.56,42.86,29.28,85.66,43.96,128.47.18.51.32,1.02.48,1.53,3.49,10.79-2.46,17.89-13.35,15.66-12.05-2.47-24.04-5.26-36.06-7.89-7.79-1.7-15.65-3.11-23.34-5.17-3.18-.85-4.65.21-6.42,2.57-12.21,16.28-24.59,32.42-36.8,48.7-3.06,4.09-6.44,7.05-11.79,6.09-5.14-.92-7.25-4.83-8.87-9.45-8.83-25.22-17.76-50.41-26.66-75.61-.53-1.49-1.1-2.97-2.08-5.62-1.29,2.65-2.21,4.42-3.03,6.23-10.69,23.66-21.4,47.32-32.03,71.01-2.13,4.74-4.47,8.96-10.25,9.32-5.73.35-8.65-3.45-11.4-7.85-10.6-17-21.39-33.89-31.92-50.94-1.88-3.04-3.71-3.72-7.15-3.25-20.26,2.79-40.54,5.32-60.84,7.75-9.51,1.14-14.94-7.34-10.7-16.75,10.81-24,21.77-47.93,32.67-71.89,5.67-12.47,11.25-24.98,17.05-37.38,1.46-3.11,1.6-5.7.39-9.04-13.24-36.48-11.29-72.24,5.29-107.18,3.01-6.34,7.62-9.01,12.72-7.61,6.82,1.87,9.14,8.6,6.33,16.4-3.73,10.35-8.16,20.64-10.18,31.39-13.87,73.77,49.48,140.38,120.99,127.68,80.28-14.26,116.02-109.79,66-176.4-29.29-39-84.53-52.48-127.62-31.14-1.72.85-3.39,1.81-5.14,2.57-6.39,2.77-12.09.96-14.66-4.6-2.62-5.68-.54-11.31,5.65-14.69,11.72-6.41,24.14-10.7,37.22-12.98,3.74-.65,7.47-1.35,11.2-2.02h20.8ZM309.02,303.14c-11.39-33.25-22.46-65.59-33.86-98.86-22.83,33.02-52.78,51.96-91.11,57.29,9.18,26.02,18.23,51.69,27.55,78.14,11.16-14.72,21.68-28.46,32.03-42.34,3.82-5.12,8.24-6.82,14.49-5.36,16.51,3.87,33.13,7.28,50.89,11.13M121.37,335.07c11.22-24.89,22.11-49.05,33.18-73.61-37.36-5.47-66.51-23.89-88.93-55.15-12.79,28.14-25.18,55.37-37.81,83.14,1.7,0,2.68.1,3.64-.02,15.99-1.93,31.98-3.75,47.94-5.91,6.11-.83,10.26,1.28,13.52,6.58,7.89,12.83,16,25.53,24.03,38.27,1.3,2.06,2.68,4.06,4.42,6.71"/>
    <path class="cls-1" d="M124.82,184.2c1.48-8.95,3.38-19.33,4.77-29.78.3-2.2-.58-5.32-2.04-6.9-6.45-7-13.29-13.62-20.04-20.32-3.52-3.48-5.47-7.48-3.84-12.51,1.55-4.79,5.18-6.8,9.87-7.44,9.09-1.25,18.15-2.83,27.25-4.03,3.21-.42,5.24-1.58,6.67-4.83,3.8-8.62,8.04-17.04,12.05-25.57,2.12-4.5,5.11-7.67,10.31-7.63,5.2.05,8.11,3.31,10.21,7.8,3.91,8.38,8.06,16.64,11.84,25.08,1.48,3.31,3.51,4.75,7.01,5.18,9.28,1.15,18.5,2.75,27.76,4.09,4.54.66,7.83,2.99,9.25,7.51,1.43,4.56-.12,8.45-3.32,11.69-6.93,7.02-14.03,13.88-20.76,21.1-1.37,1.47-2.21,4.38-1.94,6.44,1.2,9.04,2.92,18,4.4,27,.87,5.28,1.23,10.51-3.74,14.09-4.88,3.51-9.5,1.71-14.12-.88-7.46-4.17-15.08-8.04-22.45-12.37-3.11-1.83-5.55-1.63-8.58.1-8.33,4.76-16.73,9.42-25.28,13.73-7.95,4.01-15.55-1.14-15.28-11.55M148.8,166.84c5.21-2.83,9.58-4.99,13.73-7.53,5-3.05,9.72-2.91,14.67.1,4.15,2.53,8.51,4.69,13.45,7.38-.89-5.67-1.3-10.66-2.5-15.44-1.54-6.17.21-10.84,4.7-14.81,3.57-3.16,7.04-6.44,10.55-9.66-.35-.5-.7-1-1.05-1.5-4.77-.7-9.52-1.51-14.31-2.07-5.5-.65-9.19-3.44-11.42-8.76-1.93-4.61-4.36-9-6.95-14.24-2.43,5.05-4.62,8.93-6.2,13.06-2.53,6.62-7.1,9.72-13.84,10.23-4.26.32-8.49,1.23-14,2.06,4.66,4.62,8.47,8.43,12.31,12.21,3.41,3.36,4.65,7.3,3.65,12.17-1.07,5.22-1.77,10.53-2.8,16.79"/>
    <path class="cls-1" d="M97.7,46.27c-.16,5.57-5.16,10.57-10.48,10.47-5.64-.11-10.34-5.36-10.11-11.29.23-5.81,4.92-10.26,10.6-10.04,5.5.21,10.15,5.27,9.99,10.85"/>
  </g>
</svg>