<?xml version="1.0" encoding="UTF-8"?>
<svg id="Capa_1" data-name="Capa 1" xmlns="http://www.w3.org/2000/svg" viewBox="0 0 361.6 447.66">
  <defs>
    <style>
      .cls-1 {
        fill: none;
        stroke: #2c4b82;
        stroke-miterlimit: 10;
        stroke-width: 2px;
      }

      .cls-2 {
        fill: #2c4b82;
      }
    </style>
  </defs>
  <path class="cls-2" d="M166.79,446.66c-14.92-2.3-27.12-10.65-39.79-17.94-17.36-9.99-34.79-19.88-52.02-30.1C26.83,370.07,1.81,327.73,1.28,271.74c-.55-57.34-.13-114.68-.12-172.02,0-1.84,0-3.68.15-5.5.91-11.49,9.39-20.5,20.89-21.39,20.45-1.57,40.71-4.07,60.4-10.06,28.12-8.55,53.36-22,74.33-42.98,9.38-9.39,23.5-9.71,32.74-.49,27.85,27.76,62.03,42.56,100.1,49.31,11.51,2.04,23.24,2.82,34.88,4.12,11.78,1.31,20.81,9.92,21.07,21.63.46,20.89.25,41.8.19,62.7-.01,4.41-2.65,6.81-6.53,6.67-3.87-.14-6.06-2.72-6.07-7.63-.06-18.08-.03-36.16-.03-54.23,0-1.56.04-3.11-.01-4.66-.23-7.45-3.56-11.07-10.95-11.97-12.6-1.54-25.32-2.41-37.77-4.73-38.98-7.26-73.97-22.83-102.58-51.09-5.45-5.38-11.32-5.37-16.75,0-29.72,29.38-66.23,44.84-106.73,51.93-10.4,1.82-20.99,2.61-31.52,3.64-9.98.98-13.08,4.18-13.08,14.31,0,57.2-.26,114.4.07,171.59.3,51.61,23.1,90.62,67.55,116.82,22.6,13.32,45.41,26.3,68.14,39.41,15.93,9.19,31.89,9.21,47.83.03,23.1-13.32,46.37-26.36,69.24-40.05,43.65-26.13,65.9-64.86,66.5-115.75.32-26.69.06-53.38.06-80.08,0-1.41-.06-2.83.09-4.23.39-3.72,2.95-6.2,6.27-6.21,3.33,0,5.86,2.48,6.27,6.18.05.42.07.85.07,1.27-.12,31.91,1.37,63.94-.76,95.72-3.23,48.02-26.51,85.48-67.31,111.07-24.85,15.58-50.57,29.78-76.21,44.03-6.5,3.62-14.2,5.1-21.34,7.56h-13.56Z"/>
  <path class="cls-1" d="M166.79,446.66c-14.92-2.3-27.12-10.65-39.79-17.94-17.36-9.99-34.79-19.88-52.02-30.1C26.83,370.07,1.81,327.73,1.28,271.74c-.55-57.34-.13-114.68-.12-172.02,0-1.84,0-3.68.15-5.5.91-11.49,9.39-20.5,20.89-21.39,20.45-1.57,40.71-4.07,60.4-10.06,28.12-8.55,53.36-22,74.33-42.98,9.38-9.39,23.5-9.71,32.74-.49,27.85,27.76,62.03,42.56,100.1,49.31,11.51,2.04,23.24,2.82,34.88,4.12,11.78,1.31,20.81,9.92,21.07,21.63.46,20.89.25,41.8.19,62.7-.01,4.41-2.65,6.81-6.53,6.67-3.87-.14-6.06-2.72-6.07-7.63-.06-18.08-.03-36.16-.03-54.23,0-1.56.04-3.11-.01-4.66-.23-7.45-3.56-11.07-10.95-11.97-12.6-1.54-25.32-2.41-37.77-4.73-38.98-7.26-73.97-22.83-102.58-51.09-5.45-5.38-11.32-5.37-16.75,0-29.72,29.38-66.23,44.84-106.73,51.93-10.4,1.82-20.99,2.61-31.52,3.64-9.98.98-13.08,4.18-13.08,14.31,0,57.2-.26,114.4.07,171.59.3,51.61,23.1,90.62,67.55,116.82,22.6,13.32,45.41,26.3,68.14,39.41,15.93,9.19,31.89,9.21,47.83.03,23.1-13.32,46.37-26.36,69.24-40.05,43.65-26.13,65.9-64.86,66.5-115.75.32-26.69.06-53.38.06-80.08,0-1.41-.06-2.83.09-4.23.39-3.72,2.95-6.2,6.27-6.21,3.33,0,5.86,2.48,6.27,6.18.05.42.07.85.07,1.27-.12,31.91,1.37,63.94-.76,95.72-3.23,48.02-26.51,85.48-67.31,111.07-24.85,15.58-50.57,29.78-76.21,44.03-6.5,3.62-14.2,5.1-21.34,7.56h-13.56Z"/>
  <path class="cls-2" d="M311.73,199.68c0,23.87.19,47.74-.04,71.6-.41,42.39-18.73,74.88-55.07,96.73-23.21,13.96-46.87,27.15-70.32,40.71-8.12,4.69-16.4,5.15-24.55.47-25.2-14.47-50.77-28.37-75.33-43.87-32.62-20.59-49.68-51.09-50.81-89.63-.85-29.07-.2-58.18-.19-87.27,0-4.65,2.39-7.5,6.16-7.6,3.9-.11,6.52,2.87,6.53,7.71.03,27.4-.09,54.79.04,82.19.18,38.55,16.94,67.7,50.22,87.18,22.76,13.33,45.69,26.38,68.5,39.63,4.29,2.5,8.44,2.87,12.79.35,24.66-14.28,49.73-27.89,73.88-42.99,29.27-18.29,44.8-45.58,45.28-80.07.71-50.97.17-101.96.28-152.94,0-3.52-1.36-4.53-4.61-4.98-43.08-5.91-82.94-20.05-117.81-46.67-2.37-1.81-3.96-1.67-6.26.09-33.58,25.54-71.8,39.65-113.23,45.98-10.04,1.53-9.03-.91-9.05,10.34-.02,9.75.02,19.49-.02,29.24-.02,5.04-2.3,7.8-6.3,7.84-4.04.04-6.37-2.7-6.39-7.71-.03-11.44-.02-22.88,0-34.32,0-10.41,4.98-15.44,15.11-17.45,16.29-3.23,32.67-6.42,48.57-11.09,23.47-6.9,44.8-18.43,64.25-33.35,6.97-5.35,13.32-5.49,20.14-.26,30.11,23.09,64.33,36.46,101.43,43.03,4.58.81,9.22,1.34,13.79,2.2,8.39,1.58,13.01,7.13,13.03,15.67.04,26.41.01,52.82.01,79.22"/>
  <path class="cls-1" d="M311.73,199.68c0,23.87.19,47.74-.04,71.6-.41,42.39-18.73,74.88-55.07,96.73-23.21,13.96-46.87,27.15-70.32,40.71-8.12,4.69-16.4,5.15-24.55.47-25.2-14.47-50.77-28.37-75.33-43.87-32.62-20.59-49.68-51.09-50.81-89.63-.85-29.07-.2-58.18-.19-87.27,0-4.65,2.39-7.5,6.16-7.6,3.9-.11,6.52,2.87,6.53,7.71.03,27.4-.09,54.79.04,82.19.18,38.55,16.94,67.7,50.22,87.18,22.76,13.33,45.69,26.38,68.5,39.63,4.29,2.5,8.44,2.87,12.79.35,24.66-14.28,49.73-27.89,73.88-42.99,29.27-18.29,44.8-45.58,45.28-80.07.71-50.97.17-101.96.28-152.94,0-3.52-1.36-4.53-4.61-4.98-43.08-5.91-82.94-20.05-117.81-46.67-2.37-1.81-3.96-1.67-6.26.09-33.58,25.54-71.8,39.65-113.23,45.98-10.04,1.53-9.03-.91-9.05,10.34-.02,9.75.02,19.49-.02,29.24-.02,5.04-2.3,7.8-6.3,7.84-4.04.04-6.37-2.7-6.39-7.71-.03-11.44-.02-22.88,0-34.32,0-10.41,4.98-15.44,15.11-17.45,16.29-3.23,32.67-6.42,48.57-11.09,23.47-6.9,44.8-18.43,64.25-33.35,6.97-5.35,13.32-5.49,20.14-.26,30.11,23.09,64.33,36.46,101.43,43.03,4.58.81,9.22,1.34,13.79,2.2,8.39,1.58,13.01,7.13,13.03,15.67.04,26.41.01,52.82.01,79.22Z"/>
  <path class="cls-2" d="M147.85,240.26c9.61-9.63,18.88-18.91,28.16-28.19,1.1-1.1,2.16-2.23,3.3-3.28,3.13-2.86,6.88-3.02,9.43-.44,2.57,2.6,2.52,6.37-.49,9.42-9.83,9.95-19.75,19.8-29.64,29.68-1.8,1.8-3.55,3.64-5.4,5.39-3.73,3.54-6.97,3.56-10.66-.1-10.63-10.54-21.14-21.2-31.81-31.7-8.35-8.22-20.25-8.32-28-.42-7.22,7.36-7.76,18.96-.47,26.41,17.38,17.77,34.94,35.36,52.73,52.72,7.75,7.57,19.17,6.7,27.32-1.42,21.71-21.63,43.36-43.33,65.03-65,12.28-12.28,24.68-24.46,36.8-36.9,10.65-10.94,5.9-28.49-8.63-32.3-7.27-1.91-13.65.05-18.99,5.39-8.38,8.4-16.74,16.81-25.2,25.13-1.36,1.35-3.21,3.14-4.78,3.1-2.22-.05-4.97-1.1-6.46-2.69-2.14-2.29-1.54-5.34.67-7.65,3.41-3.58,6.94-7.04,10.44-10.53,5.49-5.49,10.91-11.06,16.49-16.45,13.32-12.86,32.97-12.94,45.61-.26,12.64,12.67,12.63,32.42-.46,45.59-33.85,34.06-67.8,68.01-101.86,101.86-13.61,13.54-32.82,13.28-46.49-.3-16.73-16.62-33.41-33.3-50.03-50.03-13.04-13.13-13.32-32.8-.78-45.62,12.56-12.84,32.59-12.82,45.94.23,9.38,9.18,18.54,18.59,28.24,28.34"/>
  <path class="cls-1" d="M147.85,240.26c9.61-9.63,18.88-18.91,28.16-28.19,1.1-1.1,2.16-2.23,3.3-3.28,3.13-2.86,6.88-3.02,9.43-.44,2.57,2.6,2.52,6.37-.49,9.42-9.83,9.95-19.75,19.8-29.64,29.68-1.8,1.8-3.55,3.64-5.4,5.39-3.73,3.54-6.97,3.56-10.66-.1-10.63-10.54-21.14-21.2-31.81-31.7-8.35-8.22-20.25-8.32-28-.42-7.22,7.36-7.76,18.96-.47,26.41,17.38,17.77,34.94,35.36,52.73,52.72,7.75,7.57,19.17,6.7,27.32-1.42,21.71-21.63,43.36-43.33,65.03-65,12.28-12.28,24.68-24.46,36.8-36.9,10.65-10.94,5.9-28.49-8.63-32.3-7.27-1.91-13.65.05-18.99,5.39-8.38,8.4-16.74,16.81-25.2,25.13-1.36,1.35-3.21,3.14-4.78,3.1-2.22-.05-4.97-1.1-6.46-2.69-2.14-2.29-1.54-5.34.67-7.65,3.41-3.58,6.94-7.04,10.44-10.53,5.49-5.49,10.91-11.06,16.49-16.45,13.32-12.86,32.97-12.94,45.61-.26,12.64,12.67,12.63,32.42-.46,45.59-33.85,34.06-67.8,68.01-101.86,101.86-13.61,13.54-32.82,13.28-46.49-.3-16.73-16.62-33.41-33.3-50.03-50.03-13.04-13.13-13.32-32.8-.78-45.62,12.56-12.84,32.59-12.82,45.94.23,9.38,9.18,18.54,18.59,28.24,28.34Z"/>
</svg>