<?xml version="1.0" encoding="UTF-8"?>
<svg id="Capa_1" data-name="Capa 1" xmlns="http://www.w3.org/2000/svg" viewBox="0 0 570.22 570.33">
  <defs>
    <style>
      .cls-1 {
        fill: #034b86;
      }
    </style>
  </defs>
  <path class="cls-1" d="M397.6,0h6.68c26.94,15.17,53.77,30.55,80.86,45.44,16.62,9.13,24.61,22.7,24.44,41.6-.23,26.16-.06,52.32-.06,78.48v7.1h6.04c13.17,0,26.35.29,39.51-.11,6.86-.21,11.86,1.89,15.14,7.92v24.5c-.42.58-.87,1.14-1.27,1.73-3.29,4.95-7.92,7.01-12.72,5.65-5.15-1.46-8.07-5.63-8.29-11.79-.06-1.77-.18-3.55-.27-5.19h-255.05v81.38c5.83,2.49,11.64,4.83,17.34,7.42,24.82,11.26,49.22,11.8,73.7-1.48,7.22-3.92,15.34-6.59,23.37-8.54,15.78-3.83,30.44,1.27,44.62,7.63,17.35,7.78,33.82,17.76,53.4,19.6,14.12,1.33,28.2,3.17,40.93,4.63,2.41-5.13,3.38-9.57,6.06-12.37,5.34-5.6,12.56-3.36,18.19,4.88v263.95c-3.28,6.02-8.3,7.91-15.14,7.9-179.82-.14-359.65-.11-539.47-.11C3.36,570.22,0,566.9,0,554.79,0,432.5,0,310.2,0,187.91c0-11.83,3.43-15.28,15.18-15.28,68.29,0,136.58,0,204.88,0h6.55c3.61-15.31,11.58-26.94,24.13-35.43,12.52-8.47,26.76-9.8,41.6-9.04,0-14.54.13-28.09-.04-41.62-.23-18.47,7.74-31.83,23.92-40.78,27.22-15.07,54.25-30.48,81.36-45.75M292.34,429.28c0,2.24.1,5.75-.02,9.25-.26,7.72-4.71,12.58-11.26,12.48-6.37-.09-10.62-4.83-10.96-12.24-.07-1.48-.03-2.96-.03-4.45v-244.98c0-1.67-.05-3.35.05-5.01.46-7.54,4.52-11.5,12.04-11.7,3.27-.08,6.55-.02,9.86-.02v-22.93c-7.34.81-14.51.63-21.1,2.5-14.89,4.22-23.09,17.13-23.1,34.72-.02,82.03,0,164.06,0,246.09,0,1.86.05,3.72-.03,5.57-.32,7.69-4.76,12.57-11.31,12.44-6.36-.11-10.71-4.84-10.89-12.27-.18-7.42-.03-14.85-.07-22.27-.01-1.77-.21-3.53-.33-5.56-10.28.6-19.16,3.45-27.66,7.87-22.92,11.92-46.03,12.04-68.7-.26-17.89-9.7-35.11-9.63-52.9.1-14.37,7.85-29.84,11.01-46.23,7.91-2.3-.44-4.61-.86-7.15-1.33v122.44h525.17v-122.09c-.74-.06-1.31-.25-1.8-.12-19.83,5.09-38.02.68-55.69-8.77-15.14-8.09-30.88-7.78-45.86.45-25.02,13.74-49.69,13.85-74.71.14-13.99-7.67-28.56-8.31-43.38-1.96-10.81,4.64-21.76,8.98-33.93,13.99M225.26,294.5c-11.03,0-21.38-.13-31.72.03-20.88.31-39.5-5.27-55.01-19.9-4.57-4.32-9.4-8.61-14.79-11.75-7.44-4.34-15.2-9.63-23.39-10.92-30.14-4.75-55.27,7.44-77.83,25.33v123.83c14.6,6.55,28.87,5.53,42.39-1.88,25.23-13.82,50.01-13.83,75.22.07,13.56,7.47,28.11,8.56,42.29,1.83,13.63-6.48,27.18-12.66,42.84-12.57v-94.07ZM292.72,405.23c5.84-2.2,11.25-3.53,15.97-6.13,24.99-13.77,49.69-13.66,74.69.07,15.21,8.35,31.14,8.66,46.32.32,25.59-14.07,50.6-14.08,76.18.02,13.3,7.33,27.48,8.07,41.7,1.68v-72.86c-11.22-1.07-22.11-1.93-32.95-3.19-20.89-2.44-41.25-6.63-59.9-17.24-7.19-4.09-15.14-6.93-22.88-9.96-10.14-3.98-20.29-3.63-30.26.92-5.9,2.69-11.83,5.3-17.74,7.96-14.12,6.35-28.98,10.43-44.29,7.78-13.93-2.41-27.45-7.22-41.13-11.02-1.81-.51-3.56-1.27-5.7-2.06v103.72ZM487.07,95.11h-172.08v77.08h172.08v-77.08ZM22.61,195.14v52.9c11.55-4.9,22.77-10.73,34.65-14.47,25.77-8.1,51.25-8.46,74.61,7.73,8.06,5.59,15.4,12.22,23.34,18,5.05,3.69,10.19,7.96,15.97,9.78,17.74,5.6,35.86,3.03,53.96,1.15v-75.08H22.61ZM482.38,72.17c.32-.68.65-1.36.98-2.04-27.49-15.44-54.98-30.88-82.33-46.25-26.1,14.61-51.63,28.87-77.11,43.25-1.88,1.06-3.31,2.92-5.63,5.03h164.1Z"/>
  <path class="cls-1" d="M570.22,255.04c-.62.89-1.22,1.78-1.86,2.65-3.16,4.31-7.33,6.22-12.52,4.54-5.1-1.65-7.91-5.41-7.8-10.81.11-5.15,2.93-8.71,7.8-10.26,5.2-1.65,9.37.23,12.53,4.55.63.87,1.23,1.76,1.85,2.65v6.68Z"/>
  <path class="cls-1" d="M67.41,451.05c1.35.54,4.01,1.33,6.4,2.62,7.4,3.99,14.33,3.59,21.41-1.07,14.19-9.34,28.85-9.15,43.6-1.23,7.07,3.8,9.42,10.06,6.2,16.07-3.09,5.77-9.43,7.47-16.23,3.73-8.17-4.49-15.54-3.95-23.39,1.13-14.76,9.56-29.81,8.21-44.53-.44-4.85-2.86-6.61-7.83-5.16-12.9,1.28-4.48,5.59-7.77,11.72-7.92"/>
  <path class="cls-1" d="M404.71,459.99c-.15,10.28-8.32,16.09-15.23,12.17-10.18-5.76-18.69-4.36-28.4,1.56-13.98,8.52-28.44,6.18-42.05-2.01-5.42-3.27-6.91-9.8-3.97-15,2.97-5.23,9.27-7.41,14.85-4.15,9.07,5.3,17.01,4.39,25.85-1.16,14.23-8.94,29.03-7.51,43,1.08,3.05,1.88,4.76,5.94,5.95,7.5"/>
  <path class="cls-1" d="M256.56,504.4c-.04,10.06-7.43,15.29-14.66,12.72-1.21-.43-2.39-1.01-3.51-1.65-7.5-4.23-14.58-3.9-21.88.91-14.41,9.5-29.26,9.03-44.07.82-6.64-3.68-8.77-10-5.56-15.82,3.08-5.6,9.37-7.39,15.78-3.82,8.31,4.62,15.81,4.23,23.89-.99,14.53-9.38,29.55-8.38,43.96.41,3.06,1.87,4.83,5.88,6.05,7.42"/>
  <path class="cls-1" d="M452.4,524.97c-7.84-2.91-15.6-5.2-22.82-8.66-5.75-2.75-7.22-9.5-4.39-14.8,2.93-5.5,9.33-7.68,15.21-4.29,8.9,5.13,16.7,4.32,25.36-1.14,14.41-9.09,29.27-7.55,43.56.95,5.53,3.28,7.16,9.6,4.34,14.92-2.91,5.48-9.35,7.67-15.22,4.28-8.9-5.14-16.71-4.33-25.41,1.06-5.92,3.66-13.25,5.04-20.64,7.68"/>
  <path class="cls-1" d="M97.33,275.12c5.93.25,10.75,5.34,10.65,11.26-.1,6.15-5.42,11.19-11.54,10.93-6.13-.25-11.04-5.7-10.63-11.82.39-5.92,5.61-10.62,11.52-10.37"/>
  <path class="cls-1" d="M55.42,297.4c5.92-.15,11.06,4.63,11.35,10.55.31,6.12-4.68,11.49-10.82,11.64-6.14.15-11.36-4.95-11.36-11.11,0-5.93,4.89-10.93,10.83-11.08"/>
  <path class="cls-1" d="M141.48,331.84c-6.14.03-11.27-5.19-11.13-11.33.12-5.93,5.11-10.83,11.05-10.85,6.15-.03,11.27,5.18,11.14,11.33-.13,5.93-5.12,10.84-11.05,10.86"/>
  <path class="cls-1" d="M96.87,319.67c5.93-.01,10.95,4.87,11.12,10.8.17,6.13-4.94,11.38-11.08,11.39-6.14.01-11.26-5.21-11.11-11.35.14-5.94,5.14-10.82,11.07-10.84"/>
  <path class="cls-1" d="M185.91,354.11c-6.15-.04-11.22-5.31-11.02-11.45.19-5.93,5.24-10.78,11.17-10.74,6.15.04,11.23,5.32,11.02,11.45-.2,5.93-5.25,10.79-11.17,10.74"/>
  <path class="cls-1" d="M66.78,352.8c.14,6.14-4.99,11.37-11.13,11.34-5.93-.02-10.92-4.93-11.06-10.86-.14-6.14,4.97-11.35,11.13-11.33,5.93.02,10.93,4.93,11.06,10.85"/>
  <path class="cls-1" d="M141.17,354.2c5.92-.15,11.06,4.63,11.36,10.55.31,6.12-4.68,11.49-10.82,11.64-6.14.16-11.37-4.95-11.36-11.11,0-5.93,4.89-10.93,10.83-11.08"/>
  <path class="cls-1" d="M389.09,347.46c0,6.12-4.78,11.03-10.84,11.12-6.23.1-11.28-5.05-11.15-11.37.13-6.07,5.09-10.91,11.12-10.83,6.06.07,10.86,4.97,10.87,11.08"/>
  <path class="cls-1" d="M472.62,349.9c-.11,6.1-5.01,10.94-11.06,10.91-6.24-.04-11.18-5.28-10.93-11.59.24-6.06,5.31-10.81,11.34-10.61,6.05.19,10.75,5.18,10.65,11.29"/>
  <path class="cls-1" d="M336.75,353.02c0,6.12-4.77,11.04-10.82,11.13-6.23.1-11.29-5.04-11.16-11.36.13-6.07,5.08-10.91,11.11-10.85,6.05.06,10.87,4.96,10.88,11.07"/>
  <path class="cls-1" d="M508.27,368.6c-6.03-.08-10.85-5.01-10.86-11.1,0-6.32,5.15-11.34,11.41-11.09,6.05.23,10.72,5.25,10.58,11.36-.14,6.1-5.09,10.91-11.13,10.84"/>
  <path class="cls-1" d="M432.53,370.59c.13,6.12-4.54,11.13-10.58,11.37-6.24.24-11.41-4.79-11.4-11.11,0-6.1,4.83-11.02,10.86-11.09,6.05-.07,10.99,4.75,11.12,10.84"/>
</svg>