<?xml version="1.0" encoding="UTF-8"?>
<svg id="Capa_1" data-name="Capa 1" xmlns="http://www.w3.org/2000/svg" viewBox="0 0 363.6 447.66">
  <defs>
    <style>
      .cls-1 {
        fill: #034b86;
      }
    </style>
  </defs>
  <path class="cls-1" d="M0,269.27c2.25-3.71,5.59-4.71,9.82-4.69,28.36.12,56.72.07,85.09.07h4.37v-3.75c0-5.59-.06-11.19.02-16.78.08-5.01,2.65-7.5,7.68-7.62,2.14-.05,4.28,0,6.59,0v-24.71c-1.14-.12-2.13-.2-3.13-.33-4.24-.57-6.53-2.99-6.68-7.3-.12-3.19-.03-6.39-.03-9.59,0-5.36-.01-10.73,0-16.09.02-6.3,2.01-8.47,8.19-8.97.45-.04.89-.12,1.58-.22v-20.69c-2.64.36-5.11.64-7.56,1.03-16.58,2.65-33.15,5.33-49.74,7.97-9.36,1.49-18.72,3-28.1,4.36-11.18,1.62-21.02-5.73-23.06-17.07-1.83-10.18,5.13-20.62,15.59-22.85,6.69-1.43,13.5-2.31,20.27-3.39,16.69-2.67,33.39-5.32,50.08-7.97,6.43-1.02,12.86-2.02,19.29-3.04,1.1-.18,2.18-.45,3.47-.72,0-3.64,0-7.06,0-10.47,0-1.25-.04-2.51.03-3.76.22-4.18,2.77-6.86,6.97-6.88,13.95-.08,27.91-.09,41.86.01,4.13.03,6.77,2.84,6.88,6.99.1,3.85.02,7.7.02,11.95h4.35c31.11,0,62.21-.02,93.32.03,2.95,0,5.98.1,8.85.74,12.2,2.71,20.9,12.88,21.18,25.32.3,13.46.17,26.94-.09,40.4-.07,3.58-1.07,7.21-2.12,10.68-2.15,7.11-2.3,14.11.02,21.18,3.27,9.98,3.17,19.95-.1,29.92-2.52,7.68-2.08,15.23,1,23.11,3.12-2.85,6.03-5.5,8.93-8.15.93-.85,1.82-1.75,2.8-2.53,3.05-2.42,7.14-2.16,9.58.56,2.45,2.72,2.47,6.48-.22,9.28-2.37,2.47-4.98,4.71-7.5,7.03-.58.53-1.25.97-1.65,2.09.92.08,1.85.23,2.78.23,10.29.02,20.59.14,30.88-.05,4.23-.08,7.57.99,9.82,4.69v97.94c-2.06,3.65-5.13,4.84-9.35,4.84-110.88-.09-221.77-.09-332.65,0-4.21,0-7.3-1.17-9.35-4.84v-97.94ZM337.37,299.43v-20.79c-6.01-.72-321.11-.44-323.39.24v20.55h3.99c30.07,0,60.15,0,90.22,0,1.14,0,2.3-.07,3.43.08,3.7.51,6.12,3.47,5.94,7.16-.18,3.5-2.75,6.13-6.36,6.42-1.02.08-2.06.03-3.09.03H13.92v44.95h323.41c.65-5.68.41-42.45-.3-44.95h-161.51c-1.14,0-2.29.05-3.43-.03-3.65-.28-6.46-3.19-6.53-6.7-.06-3.47,2.7-6.53,6.34-6.91,1.13-.12,2.28-.05,3.43-.05,52.6,0,105.2,0,157.8,0h4.26ZM250.33,255.59c-2.02-11.39-1.94-18.12.72-26.2,2.56-7.77,2.54-15.38-.01-23.15-2.99-9.15-2.77-18.35-.04-27.6,1.06-3.57,1.73-7.33,2-11.05.34-4.65.13-9.35.08-14.03-.04-3.72-1.18-4.8-5.02-4.81-25.38-.01-50.77,0-76.15,0-.75,0-1.5.2-2.13.28v20.27c1.38.13,2.53.16,3.65.35,3.45.58,5.45,2.66,5.9,6.13.13,1.01.14,2.05.15,3.08.01,7.76.01,15.52,0,23.28,0,1.02-.02,2.06-.15,3.07-.47,3.49-2.44,5.5-5.94,6.09-1.2.2-2.43.3-3.69.46v24.71c2.31,0,4.45-.04,6.59,0,4.99.12,7.62,2.71,7.67,7.65.06,5.36.02,10.73.02,16.09v3.95c3.8.72,51.93.62,54.69-.12-1-.79-1.86-1.49-2.75-2.17-2.62-2.02-5.32-3.95-7.85-6.08-2.57-2.15-3.18-5.58-1.72-8.37,1.43-2.75,4.38-4.25,7.48-3.47,1.39.35,2.72,1.17,3.89,2.03,4.13,3.05,8.19,6.21,12.62,9.59M169.67,135.03h77.03c1.26,0,2.52-.02,3.77.04,7.12.37,13.51,5.22,15.46,12.04.65,2.26.71,4.71.87,7.09.14,1.99.03,4,.03,6h16.47c.12-.5.26-.81.26-1.13,0-9.24.1-18.48-.09-27.72-.04-2.07-.75-4.33-1.8-6.13-2.82-4.87-7.3-6.8-12.93-6.79-32,.07-64,.03-96.01.04-.99,0-1.97.13-3.08.2v16.35ZM127.84,99.57c-.73,5.5-.46,67.45.26,69.77h27.48v-69.77h-27.74ZM283.68,264.45c-.76-2.78-1.4-5.27-2.13-7.73-2.72-9.1-2.89-18.24.07-27.25,2.55-7.77,2.58-15.35.04-23.11-2.98-9.14-2.88-18.38-.04-27.57.43-1.4.84-2.79,1.33-4.41h-16.44c-.75,2.66-1.35,5.1-2.12,7.48-2.31,7.18-2.29,14.31.01,21.5.79,2.48,1.44,5.04,1.85,7.61,1.22,7.45.45,14.75-1.97,21.9-1.99,5.86-2.11,11.86-.76,17.86.99,4.43,2.12,8.83,3.21,13.24.04.18.29.32.47.5h16.47ZM113.58,121.02c-6.1.96-11.73,1.84-17.35,2.73-13.76,2.18-27.53,4.35-41.29,6.54-10.04,1.59-20.09,3.14-30.1,4.85-1.49.25-3.06,1.03-4.23,2.01-2.22,1.87-2.62,4.96-1.36,7.52,1.35,2.74,4.09,4.15,7.43,3.65,8.47-1.29,16.93-2.64,25.39-3.98,16.69-2.65,33.39-5.3,50.08-7.96,3.81-.61,7.6-1.27,11.43-1.91v-13.44ZM170.09,250.39h-56.79v14.03h56.79v-14.03ZM117.66,197.54h47.75v-13.92c-4.22-.65-45.25-.49-47.75.16v13.75ZM127.69,236.23h27.91v-24.5h-27.91v24.5Z"/>
</svg>