<?xml version="1.0" encoding="UTF-8"?>
<svg id="Capa_1" data-name="Capa 1" xmlns="http://www.w3.org/2000/svg" viewBox="0 0 374.06 447.66">
  <defs>
    <style>
      .cls-1 {
        fill: #034b86;
      }
    </style>
  </defs>
  <path class="cls-1" d="M106.48,127.27c2.65-8.22,7.55-12.6,14.19-12.93,7.44-.38,12.6,3.34,16.2,11.87h99.03c2.33-6.83,6.73-11.39,14.24-11.81,7.34-.41,12.18,3.5,15.43,10.18,1.44-.54,2.86-.93,4.14-1.58,13.91-7.06,22.14-18.21,23.7-33.85.46-4.67.07-9.42.07-14.42-.9-.41-1.98-.89-3.06-1.41-6.43-3.15-9.71-9.67-8.46-16.79,1.11-6.34,6.65-11.37,13.45-12.12,1.47-.17,2.96-.19,4.45-.19,17.28-.01,34.56-.01,51.85,0,1.61,0,3.24.04,4.84.25,6.97.9,12.06,5.93,13.13,12.89,1.01,6.63-2.37,12.94-8.56,15.95-.96.47-1.95.87-3.3,1.48,0,2.88,0,5.82,0,8.76-.01,16.27-2.84,31.98-10.04,46.67-15.8,32.19-41.35,51.81-76.57,58.79-1.58.31-3.17.61-4.98.96-2.33,7.64-7.24,12.49-15.65,12.56-6.58.05-11.45-4.01-14.68-11.77h-99.13c-2.21,6.63-6.64,11.12-13.84,11.69-7.24.58-12.29-3.2-15.6-9.79-7.79,2.55-14.05,6.99-19.06,13.21-5.29,6.58-8.56,14.05-9.04,22.54-.26,4.69-.05,9.4-.05,14.28,6.83,2.35,11.36,6.76,11.72,14.29.36,7.73-3.78,12.64-10.86,15.6v22.29c0,1.89.08,3.79-.03,5.67-.18,3.04-1.91,4.94-4.3,4.91-2.39-.04-4.14-1.94-4.18-5.02-.1-7.02-.04-14.04-.04-21.06v-5.95h-20.39c0,2.85.09,5.77-.02,8.68-.11,2.53-1.41,3.95-3.52,4.24-2.64.37-4.55-1.26-4.69-4.25-.14-2.8-.03-5.62-.03-8.74-1.62-.09-2.92-.22-4.22-.22-6.89-.03-13.78.12-20.66-.07-6.34-.18-11.14-3.2-13.76-9.03-2.54-5.66-1.86-11.24,2.21-15.9,2.05-2.34,5.02-3.87,8.48-6.43,0-1.8,0-4.73,0-7.66,0-13.33,1.68-26.44,6.64-38.87,14.9-37.31,42.17-59.7,81.68-67.15,1.06-.2,2.1-.47,3.26-.74M266.62,181.07c52.06-6.8,88.63-56.35,81.97-106.04h-46.5c2.05,28.11-8.79,48.35-35.47,58.47v47.58ZM23.72,242.07h46.93c-2-28.05,8.79-48.16,35.47-58.31v-47.41c-39.04,3.58-87.63,42.16-82.39,105.72M235.52,134.93h-98.24v46.76h98.24v-46.76ZM325.6,66.49c8.77,0,17.54,0,26.32,0,1.22,0,2.45.07,3.63-.13,3.61-.62,5.99-3.61,5.83-7.15-.17-3.58-2.75-6.16-6.52-6.45-.94-.07-1.89-.03-2.83-.03-17.55,0-35.09,0-52.63,0-1.08,0-2.17-.05-3.24.07-3.28.38-5.73,2.89-6.05,6.1-.3,3.02,1.43,5.95,4.41,6.97,1.36.47,2.9.59,4.36.6,8.91.05,17.81.03,26.72.03M114.91,158.51c0,8.23,0,16.46,0,24.69,0,1.62-.07,3.25.11,4.85.35,3.21,2.66,5.47,5.76,5.84,3.4.41,6.25-1.22,7.31-4.39.42-1.25.57-2.64.58-3.97.04-18.08.05-36.15.01-54.23,0-5.39-2.73-8.67-6.99-8.64-4.25.03-6.76,3.22-6.78,8.73-.03,9.04,0,18.08,0,27.12M257.82,158.47c0-8.77,0-17.55,0-26.33,0-1.21.04-2.44-.13-3.63-.42-3.08-2.83-5.37-5.91-5.79-2.94-.39-6,1.38-7.07,4.28-.41,1.11-.64,2.36-.64,3.55-.04,18.5-.04,36.99,0,55.49,0,1.32.24,2.72.71,3.94,1.13,2.88,4.04,4.39,7.22,3.96,2.95-.4,5.21-2.54,5.67-5.5.18-1.2.14-2.43.15-3.64,0-8.77,0-17.55,0-26.33M46.6,264.57c8.77,0,17.54.01,26.31-.01,1.48,0,2.99,0,4.43-.3,3.03-.61,5.15-3.29,5.26-6.36.1-3.02-1.9-5.87-4.86-6.67-1.15-.31-2.4-.41-3.6-.41-18.21-.03-36.43-.02-54.64,0-.94,0-1.9.06-2.81.26-3.43.73-5.55,3.54-5.37,7.03.17,3.29,2.4,5.79,5.76,6.28,1.33.19,2.69.17,4.04.18,8.5.01,17,0,25.5,0"/>
  <path class="cls-1" d="M75.78,308.15h-.11c-3.96-.06-6.78-3.22-6.84-7.69-.07-5.01-.06-10.1-.05-15.02,0-2.03,0-4.05,0-6.07v-3.25h-14.96c.02,1.98.04,4.03-.05,6.08-.16,3.78-2.34,6.33-5.85,6.81-2,.28-3.87-.21-5.29-1.38-1.48-1.23-2.37-3.16-2.48-5.41-.1-2.01-.08-3.98-.05-6.06,0-.09,0-.18,0-.27-.53-.03-1.03-.05-1.51-.06-2.33,0-4.66,0-7,.01-4.49.02-9.13.05-13.72-.08-7.43-.21-13.16-3.98-16.15-10.62-3.02-6.71-2.08-13.38,2.64-18.79,1.6-1.83,3.62-3.19,5.75-4.63.67-.45,1.36-.92,2.07-1.41v-6.27c-.01-15.29,2.22-28.33,6.83-39.87,15.2-38.06,43.35-61.21,83.7-68.81.56-.11,1.12-.24,1.69-.37,3.9-10.51,10.85-13.08,16.11-13.34,8.12-.4,14.06,3.48,18.09,11.87h95.42c3.07-7.32,8.55-11.39,15.96-11.81,7.23-.4,12.9,2.81,16.87,9.56.59-.21,1.14-.42,1.62-.67,13.32-6.76,20.81-17.43,22.23-31.7.3-3.01.22-6.11.14-9.38-.03-1-.05-2.01-.06-3.03-.51-.23-1.03-.48-1.55-.73-7.49-3.67-11.39-11.4-9.93-19.69,1.33-7.56,7.83-13.46,15.81-14.34,1.66-.19,3.32-.2,4.74-.2,17.28,0,34.57-.01,51.85,0,1.53,0,3.34.04,5.19.28,8.14,1.04,14.21,6.99,15.46,15.16,1.18,7.75-2.86,15.3-10.06,18.79-.57.27-1.14.53-1.78.81v6.99c-.02,18.09-3.39,33.74-10.32,47.86-16.13,32.86-42.53,53.13-78.47,60.25-1.04.21-2.09.41-3.2.62l-.25.05c-3.07,8.38-9.15,12.83-17.68,12.91h-.15c-4.99,0-11.69-2.11-16.3-11.77h-95.5c-2.93,7.08-8.26,11.11-15.51,11.69-7.18.58-13.03-2.59-17.06-9.17-6.23,2.42-11.38,6.23-15.7,11.59-5.18,6.43-8.02,13.5-8.44,21-.18,3.12-.13,6.24-.09,9.54.01.9.03,1.8.04,2.71,7.33,3.09,11.37,8.59,11.72,16.03.37,7.89-3.28,13.76-10.86,17.47v20.55c0,.55,0,1.1.01,1.65.02,1.36.04,2.76-.05,4.18-.26,4.41-3.1,7.46-6.93,7.46M48.4,270.7h25.8v8.66c0,2.03,0,4.06,0,6.09,0,4.9-.02,9.97.05,14.94,0,.7.18,2.33,1.51,2.35h.02c1.3,0,1.5-1.81,1.54-2.37.07-1.23.06-2.48.04-3.79,0-.57-.01-1.14-.01-1.71v-24.09l1.66-.7c6.57-2.75,9.5-6.88,9.21-12.98-.28-5.87-3.42-9.64-9.89-11.86l-1.83-.63v-1.93c0-1.51-.02-3.01-.04-4.5-.04-3.25-.09-6.61.09-9.93.49-8.65,3.73-16.76,9.64-24.08,5.4-6.7,12.23-11.44,20.32-14.09l2.21-.72,1.05,2.08c3.04,6.05,7.28,8.77,12.96,8.31,5.6-.45,9.47-3.76,11.49-9.85l.62-1.85h102.89l.69,1.67c2.83,6.8,6.77,10.1,12.05,10.1h.11c6.64-.06,10.92-3.54,13.08-10.64l.48-1.56,3.42-.65c1.1-.21,2.13-.41,3.16-.61,34.2-6.77,59.32-26.06,74.66-57.33,6.55-13.36,9.75-28.24,9.77-45.48v-10.52l2.87-1.27c.73-.32,1.35-.59,1.96-.88,5.13-2.49,7.91-7.63,7.07-13.11-.88-5.8-5.02-9.87-10.8-10.61-1.54-.2-3.14-.22-4.5-.23-17.28-.02-34.56-.02-51.84,0-1.28,0-2.76.01-4.15.17-5.61.62-10.17,4.7-11.08,9.91-1.05,5.95,1.63,11.27,6.98,13.89.72.35,1.45.68,2.12.99l2.45,1.13v1.73c0,1.57.04,3.11.08,4.64.09,3.29.17,6.7-.16,10.05-1.62,16.22-10.09,28.33-25.17,35.99-1.04.52-2.09.88-3.1,1.23-.43.15-.87.3-1.3.46l-2.31.87-1.08-2.22c-3.03-6.24-7.12-9-12.85-8.67-5.86.33-9.62,3.5-11.83,9.99l-.62,1.83h-102.76l-.7-1.65c-3.16-7.49-7.23-10.56-13.58-10.22-5.52.28-9.47,4-11.74,11.06l-.47,1.47-1.5.34c-.37.08-.73.17-1.08.25-.78.19-1.53.36-2.28.51-38.41,7.24-65.21,29.27-79.67,65.49-4.35,10.89-6.46,23.28-6.44,37.86v9.02l-1.09.81c-1.19.89-2.35,1.66-3.36,2.35-1.91,1.29-3.56,2.4-4.7,3.7-3.29,3.77-3.91,8.27-1.78,13.01,2.15,4.78,5.98,7.28,11.37,7.43,4.5.13,9.09.11,13.54.09,2.35-.01,4.7-.02,7.05-.01.96,0,1.89.07,2.87.14.47.03.96.06,1.49.09l2.56.14v2.56c0,.98-.01,1.94-.02,2.87-.02,2-.04,3.89.05,5.74.03.71.22,1.26.52,1.51.29.24.75.24,1.09.19.52-.07,1.12-.15,1.18-1.67.08-1.96.06-3.99.04-5.95,0-.88-.01-1.75-.01-2.62v-2.7ZM60.06,267.27h-13.46s-6.37,0-6.37,0c-6.38,0-12.75,0-19.13,0h-.35c-1.31,0-2.66,0-4.07-.2-4.59-.67-7.84-4.21-8.07-8.82-.25-4.87,2.77-8.81,7.51-9.82,1-.21,2.11-.32,3.37-.32,18.22-.02,36.43-.02,54.65,0,1.65,0,3.06.17,4.31.51,4.12,1.12,7,5.06,6.85,9.38-.14,4.4-3.2,8.07-7.43,8.92-1.7.34-3.35.35-4.95.35-4.29.01-8.57.01-12.86.01M46.6,261.86h6.72c6.53,0,13.06,0,19.58-.01,1.4,0,2.72,0,3.9-.24,1.75-.35,3.03-1.91,3.09-3.79.06-1.8-1.17-3.51-2.87-3.98-.78-.21-1.72-.32-2.89-.32-18.21-.02-36.42-.02-54.63,0-.88,0-1.62.07-2.25.2-2.1.45-3.34,2.08-3.23,4.25.1,2.04,1.39,3.44,3.44,3.74,1.02.15,2.12.15,3.29.15h.35c6.38.01,12.75,0,19.12,0h6.37ZM73.55,244.78H21.23l-.2-2.48c-3.09-37.53,12.04-62.8,25.29-77.39,15.98-17.61,38.25-29.29,59.55-31.24l2.95-.27v52.24l-1.74.66c-24.69,9.4-35.72,27.59-33.73,55.59l.21,2.9ZM26.24,239.36h41.55c-1.14-28.04,10.83-47.36,35.62-57.45v-42.54c-19.09,2.59-38.73,13.34-53.09,29.16-12.23,13.47-26.16,36.6-24.08,70.83M250.93,196.72c-3.9,0-7.29-2.19-8.67-5.75-.59-1.5-.9-3.2-.9-4.92-.04-17.84-.04-35.99,0-55.5,0-1.51.28-3.06.81-4.48,1.5-4.06,5.69-6.61,9.96-6.02,4.33.58,7.65,3.83,8.23,8.1.16,1.19.16,2.32.16,3.42v.58c0,6.58,0,13.16,0,19.75v13c0,6.64,0,13.27,0,19.91v.52c0,1.13,0,2.3-.18,3.52-.62,4.09-3.83,7.21-7.97,7.78-.48.06-.96.09-1.43.09M250.95,125.38c-1.58,0-3.15,1.06-3.71,2.56-.3.82-.47,1.75-.47,2.62-.04,19.5-.04,37.64,0,55.47,0,1.04.19,2.09.53,2.96.65,1.67,2.31,2.54,4.34,2.26,1.8-.24,3.08-1.48,3.35-3.23.12-.81.12-1.72.12-2.69v-.55c0-6.63,0-13.27,0-19.9v-13c0-6.58,0-13.16,0-19.74v-.61c0-.95,0-1.85-.1-2.66-.25-1.82-1.69-3.22-3.59-3.48-.15-.02-.3-.03-.46-.03M121.81,196.66c-.44,0-.9-.03-1.36-.08-4.37-.53-7.63-3.84-8.12-8.23-.16-1.4-.15-2.77-.13-4.09v-1.06c0-6.18,0-12.35,0-18.52v-14.56c0-6.24-.01-12.49,0-18.73.02-7.01,3.65-11.4,9.46-11.43,2.59-.04,4.84.87,6.55,2.57,2.06,2.04,3.15,5.07,3.16,8.76.03,16.78.03,34.52-.01,54.24,0,1.79-.25,3.41-.72,4.82-1.31,3.93-4.71,6.3-8.84,6.3M117.61,158.51v6.17c0,6.17,0,12.34,0,18.51,0,.37,0,.74,0,1.11-.01,1.21-.02,2.36.1,3.44.21,1.9,1.51,3.22,3.4,3.45,2.17.25,3.79-.67,4.42-2.57.28-.85.43-1.93.44-3.11.04-19.72.04-37.45.01-54.22,0-2.19-.56-3.94-1.56-4.93-.68-.67-1.58-1.01-2.71-1-2.7.02-4.08,2.05-4.09,6.04-.02,6.24-.01,12.48-.01,18.71v8.39ZM238.22,184.39h-103.65v-52.17h103.65v52.17ZM139.98,178.98h92.83v-41.35h-92.83v41.35ZM263.92,184.15v-52.53l1.74-.67c24.75-9.39,35.78-27.62,33.73-55.74l-.21-2.9h51.78l.31,2.35c3.31,24.7-3.86,50.7-19.67,71.34-16.1,21-39.05,34.41-64.64,37.75l-3.06.4ZM269.33,135.34v42.6c22.92-3.79,43.42-16.21,57.99-35.23,14.44-18.84,21.26-42.4,18.88-64.98h-41.23c1.2,28.16-10.77,47.52-35.63,57.61M312.23,69.2c-4.46,0-8.91,0-13.37-.03-2.11-.01-3.78-.25-5.22-.75-4.1-1.41-6.66-5.44-6.22-9.81.45-4.48,3.91-7.98,8.43-8.51,1-.12,1.94-.11,2.85-.1h.71c17.54,0,35.09,0,52.63,0h.72c.74-.01,1.51-.02,2.32.04,5.15.41,8.77,4.03,9,9.03.23,4.91-3.16,9.09-8.07,9.93-1.19.2-2.35.19-3.37.18h-.72c-6.71,0-13.42,0-20.13,0h-13.14c-2.14,0-4.28,0-6.42,0M297.93,55.41c-.51,0-1,.01-1.45.07-2,.24-3.48,1.71-3.67,3.68-.19,1.85.88,3.55,2.59,4.14.87.3,1.98.44,3.49.45,6.59.04,13.17.04,19.76.03h13.14c6.71,0,13.41,0,20.12,0h.78c.87.01,1.7.02,2.4-.1,2.24-.38,3.68-2.13,3.58-4.35-.1-2.24-1.61-3.69-4.02-3.88-.57-.04-1.19-.04-1.84-.03h-.78c-17.54,0-35.09,0-52.63,0h-.77c-.24,0-.48,0-.71,0"/>
  <path class="cls-1" d="M14.9,362.63c0-9.85,0-19.71.01-29.56,0-1.34.03-2.71.29-4.02.38-1.94,1.75-3,3.69-3.19,1.88-.19,3.71,1.06,4.21,3.07.33,1.28.3,2.67.3,4.01.02,19.44,0,38.88.04,58.32,0,1.87.01,3.85.6,5.58,1.98,5.8,9.03,7.91,14.88,4.47,2.08-1.22,3.88-2.9,5.81-4.38,8.31-6.38,18.68-6.4,26.93-.02,1.39,1.07,2.73,2.2,4.11,3.28,2.43,1.9,5.18,2.73,8.28,2.7,2.97-.03,5.57-.89,7.87-2.7,1.59-1.25,3.12-2.59,4.74-3.79,7.57-5.61,17.69-5.68,25.31-.17,1.53,1.11,2.95,2.36,4.45,3.51,5.72,4.4,11.71,4.36,17.42-.12,1.17-.91,2.3-1.88,3.47-2.78,8.04-6.23,18.49-6.27,26.62-.09,1.18.9,2.3,1.88,3.47,2.79,5.98,4.64,11.82,4.66,17.73.05,1.28-1,2.49-2.08,3.79-3.04,7.83-5.85,18.17-5.85,25.98,0,1.4,1.05,2.72,2.21,4.11,3.28,5.56,4.26,11.54,4.24,17.1-.03,1.39-1.07,2.7-2.25,4.1-3.3,7.85-5.83,18.21-5.79,25.98.1,1.4,1.06,2.72,2.22,4.11,3.29,5.51,4.22,11.59,4.17,17.11-.13,1.28-.99,2.49-2.07,3.79-3.05,7.98-6.06,18.29-6.08,26.29-.06,1.4,1.06,2.72,2.22,4.12,3.28,5.56,4.19,11.62,4.17,17.11-.18,3.82-3.02,7.48-6.28,12.52-7.08,1.59-.25,3.22-.46,4.82-.36,2.25.14,3.84,1.9,3.9,3.93.06,2.03-1.4,4.03-3.66,4.11-4.79.17-8.42,2.45-11.81,5.51-8.26,7.47-21.3,7.01-28.85-.09-.88-.83-1.88-1.54-2.85-2.26-5.6-4.12-11.67-4.01-17.11.29-1.37,1.09-2.71,2.24-4.11,3.28-7.63,5.64-18.03,5.62-25.65-.05-1.73-1.29-3.33-2.76-5.09-4.01-4.93-3.5-10.95-3.35-15.8.32-1.18.9-2.31,1.86-3.48,2.78-8.86,7.02-19.59,7.25-28.13-.21-7.39-6.45-14.43-7.49-22.9-.07-8.71,7.62-19.46,7.33-28.45.11-.21-.17-.43-.33-.62-.52-7.59-7.07-15.16-6.07-21.53,0-8.48,8.09-21.83,7.47-29.46.22-.78-.74-1.67-1.37-2.52-2.03-5.5-4.21-11.66-4.18-17.09.08-1.38,1.09-2.71,2.24-4.11,3.29-7.82,5.79-18.2,5.73-25.97-.13-1.51-1.14-2.92-2.41-4.44-3.53-5.24-3.86-11.3-3.79-16.44.17-1.5,1.15-2.93,2.39-4.43,3.53-4.65,3.53-9.91,4.76-15.64,3.95-7.23-1.02-13.21-6.76-14.44-13.94-.34-1.98-.44-4.03-.46-6.04-.05-9.45-.02-18.9-.02-28.35"/>
  <path class="cls-1" d="M237.36,414.15c-5.53,0-10.98-2.08-15.72-6.22-7-6.11-12.42-6.13-19.34-.08-9.49,8.3-21.72,8.37-31.92.18l-.13-.1c-.22-.17-.44-.35-.64-.54-5.99-5.58-11.99-5.58-17.82-.02-9.2,8.78-24.09,8.88-33.19.22-.51-.48-1.12-.94-1.76-1.43l-.54-.41c-4.54-3.47-9.3-3.45-13.77.06-.53.42-1.06.85-1.58,1.27-.83.68-1.69,1.39-2.6,2.06-8.76,6.49-20.5,6.43-29.21-.14-.74-.56-1.46-1.15-2.17-1.73-.77-.63-1.49-1.22-2.24-1.78-4.28-3.16-8.97-3.11-13.18.14-.68.53-1.35,1.07-2.02,1.62-.8.65-1.6,1.3-2.43,1.93-5.13,3.9-11.07,5.41-17.66,4.47-8.42-1.2-15.3-7.84-16.73-16.17-.33-1.9-.48-3.96-.5-6.49-.03-6.97-.03-13.95-.02-20.93v-7.44s0-7.02,0-7.02c0-7.52,0-15.03.01-22.55,0-1.44.03-2.98.34-4.54.6-3.03,2.87-5.03,6.07-5.36,3.24-.32,6.3,1.87,7.12,5.11.38,1.53.38,3.07.38,4.43v.24c0,7.42,0,14.84,0,22.26,0,12.02,0,24.03.03,36.05,0,1.67,0,3.39.46,4.71.61,1.8,1.96,3.16,3.77,3.84,2.24.83,4.86.53,7.17-.83,1.26-.74,2.46-1.72,3.72-2.75.6-.49,1.2-.97,1.81-1.44,9.22-7.08,21.09-7.09,30.23-.02.76.59,1.51,1.2,2.26,1.81.62.5,1.24,1,1.86,1.49,1.89,1.48,3.96,2.19,6.59,2.12,2.4-.03,4.44-.72,6.23-2.13.62-.49,1.23-.98,1.85-1.49.95-.78,1.93-1.58,2.96-2.35,8.49-6.29,19.95-6.37,28.5-.19.97.7,1.89,1.45,2.77,2.17.58.47,1.15.94,1.74,1.39,4.74,3.65,9.35,3.62,14.09-.1.53-.41,1.04-.83,1.56-1.26.64-.52,1.27-1.03,1.92-1.54,9.04-7,20.78-7.04,29.91-.11.67.51,1.32,1.04,1.97,1.57.51.42,1.01.83,1.53,1.23,5.02,3.89,9.46,3.91,14.41.05.53-.41,1.06-.85,1.58-1.28.74-.61,1.48-1.22,2.25-1.8,8.75-6.54,20.49-6.54,29.23,0,.78.59,1.54,1.2,2.29,1.82.61.5,1.22,1,1.85,1.48,4.58,3.51,9.23,3.5,13.8-.03.6-.46,1.19-.95,1.77-1.44.75-.62,1.54-1.27,2.36-1.89,8.78-6.52,20.53-6.48,29.23.11.75.57,1.48,1.17,2.21,1.77.63.52,1.26,1.04,1.91,1.53,4.5,3.45,9.28,3.41,13.8-.11.56-.44,1.1-.89,1.65-1.34.71-.59,1.43-1.18,2.16-1.73,8.97-6.8,20.57-6.83,29.55-.06.73.55,1.44,1.13,2.15,1.71.65.53,1.3,1.06,1.97,1.57,4.64,3.49,9.28,3.45,13.8-.14l1.03-.82c3.66-2.94,7.45-5.97,12.74-6.81,1.7-.27,3.53-.5,5.41-.38,3.57.22,6.33,3.04,6.43,6.55.1,3.67-2.71,6.76-6.27,6.89-3.47.12-6.49,1.56-10.09,4.82-9.1,8.23-23.69,8.18-32.52-.12-.69-.65-1.51-1.25-2.37-1.89l-.23-.17c-4.59-3.37-9.37-3.29-13.82.24-.48.38-.96.77-1.43,1.16-.88.72-1.8,1.47-2.75,2.18-8.65,6.38-20.25,6.36-28.87-.06-.82-.61-1.6-1.25-2.39-1.89-.91-.75-1.76-1.45-2.65-2.08-3.96-2.81-8.67-2.71-12.6.27-.7.53-1.38,1.09-2.06,1.64-.46.37-.91.74-1.37,1.1-5,3.95-10.47,5.93-15.87,5.93M211.9,397.98c4.4,0,8.81,1.96,13.3,5.87,7.4,6.46,16.62,6.5,24.68.12.44-.35.87-.7,1.3-1.06.73-.6,1.46-1.19,2.22-1.76,5.82-4.42,13.1-4.56,19-.37,1.04.74,2.01,1.54,2.95,2.3.72.59,1.44,1.18,2.19,1.74,6.7,4.99,15.71,5,22.43.05.85-.63,1.68-1.3,2.55-2.01.5-.41,1-.81,1.5-1.21,6.38-5.05,13.81-5.18,20.38-.35l.22.17c.96.7,1.95,1.43,2.88,2.31,6.71,6.31,18.24,6.33,25.18.05,3.07-2.78,7.39-6,13.53-6.21.75-.03,1.06-.79,1.05-1.33-.01-.59-.45-1.25-1.36-1.3-1.35-.09-2.83.11-4.22.33-3.87.61-6.95,3.08-10.21,5.68l-1.05.84c-6.42,5.08-13.86,5.16-20.42.22-.73-.55-1.44-1.12-2.14-1.7-.65-.53-1.3-1.07-1.98-1.58-7-5.27-16.04-5.25-23.03.06-.67.51-1.33,1.05-1.98,1.59-.59.49-1.17.97-1.77,1.43-6.49,5.06-13.94,5.11-20.42.14-.7-.53-1.38-1.09-2.05-1.64-.68-.56-1.35-1.11-2.05-1.64-6.76-5.12-15.9-5.16-22.73-.08-.71.53-1.4,1.1-2.14,1.71-.64.53-1.27,1.06-1.93,1.56-6.57,5.06-13.81,5.07-20.39.04-.67-.51-1.33-1.05-1.98-1.59-.7-.57-1.39-1.14-2.11-1.68-6.9-5.17-15.83-5.17-22.74,0-.7.52-1.37,1.08-2.04,1.64-.57.47-1.13.93-1.7,1.38-6.86,5.34-14.14,5.32-21.06-.04-.56-.43-1.1-.88-1.64-1.33-.59-.49-1.19-.98-1.8-1.44-7.12-5.41-16.28-5.38-23.32.08-.62.48-1.22.97-1.83,1.46-.54.44-1.09.88-1.64,1.32-6.68,5.24-14.05,5.29-20.74.13-.63-.49-1.24-.99-1.85-1.49-.86-.7-1.68-1.37-2.53-1.98-6.63-4.79-15.52-4.73-22.11.15-.92.68-1.81,1.41-2.75,2.18-.64.53-1.28,1.05-1.94,1.56-2.72,2.14-5.93,3.24-9.51,3.28-3.79.03-7.15-1.06-9.98-3.27-.65-.51-1.29-1.02-1.93-1.54-.72-.58-1.44-1.17-2.17-1.73-7.25-5.61-16.3-5.6-23.63.03-.57.44-1.13.89-1.68,1.35-1.37,1.11-2.78,2.27-4.4,3.22-3.72,2.19-8.02,2.64-11.79,1.24-3.37-1.25-5.87-3.8-7.02-7.16-.74-2.16-.75-4.44-.75-6.44-.03-12.02-.03-24.04-.03-36.06,0-7.42,0-14.84,0-22.26v-.24c0-1.15,0-2.23-.22-3.11-.19-.74-.82-1.09-1.32-1.04-1.04.11-1.21.53-1.31,1.03-.22,1.08-.24,2.32-.24,3.5-.01,7.51-.01,15.02,0,22.53v14.46c0,6.97-.01,13.93.02,20.9.01,2.22.14,4,.42,5.6,1.04,6.04,6.03,10.86,12.15,11.72,5.17.74,9.63-.39,13.63-3.42.77-.59,1.52-1.2,2.27-1.81.71-.58,1.42-1.15,2.14-1.71,6.12-4.71,13.48-4.79,19.7-.2.86.63,1.67,1.3,2.46,1.95.66.54,1.32,1.08,2,1.6,6.78,5.11,15.92,5.16,22.73.11.8-.59,1.57-1.22,2.38-1.89.55-.45,1.1-.9,1.67-1.35,6.34-4.98,13.97-5.02,20.4-.1l.51.39c.74.55,1.5,1.13,2.24,1.83,6.92,6.58,18.7,6.48,25.72-.22,7.93-7.57,17.13-7.58,25.24-.03.1.09.22.18.33.27l.15.12c8.14,6.54,17.48,6.53,24.97-.04,4.42-3.86,8.78-5.8,13.16-5.8"/>
  <path class="cls-1" d="M42.83,328.63v-23.49c0-.81-.01-1.62,0-2.43.07-3.81,1.49-5.7,4.23-5.64,2.7.06,4.05,1.93,4.06,5.82.02,15.93,0,31.85,0,47.78,0,1.08-.04,2.16.02,3.24.27,4.36,2.7,7.24,7.08,7.32,6.35.13,11.52,2.63,15.97,6.82,5.57,5.24,13.68,5.32,19.34-.04,4.56-4.32,9.86-6.91,16.39-6.7,4.62.15,8.75,1.46,12.41,4.24,1.72,1.3,3.34,2.75,5.09,3.99,4.83,3.43,10.72,3.38,15.47-.08,1.3-.95,2.52-2.03,3.79-3.04,8.89-7.04,19.32-7,28.2.16,3.37,2.72,6.59,5.58,11.38,5.43,2.95-.09,5.59-.8,7.91-2.6,1.49-1.16,2.93-2.39,4.42-3.55,8.04-6.2,18.57-6.21,26.62,0,1.6,1.24,3.11,2.6,4.76,3.76,4.65,3.28,10.49,3.27,15.14-.02,1.43-1.01,2.74-2.18,4.12-3.27,8.56-6.78,18.97-6.84,27.57-.16,1.49,1.16,2.92,2.41,4.46,3.49,4.73,3.28,10.43,3.24,15.13-.09,1.43-1.01,2.74-2.19,4.12-3.27,8.61-6.76,18.96-6.79,27.57-.1,1.28.99,2.5,2.07,3.8,3.03,5.29,3.88,11.3,3.84,16.48-.1,1.61-1.23,3.12-2.59,4.74-3.79,3.7-2.73,7.85-4.15,12.48-3.97,2.49.1,4.24,1.76,4.35,3.92.11,2.17-1.45,4.12-3.99,4.23-4.33.18-7.69,2.12-10.8,4.89-3.82,3.41-8.15,5.62-13.42,5.89-5.78.29-10.94-1.09-15.41-4.85-1.44-1.22-2.92-2.41-4.48-3.46-4.9-3.3-10.77-3.14-15.48.38-1.51,1.13-2.92,2.4-4.42,3.54-8.08,6.13-18.57,6.05-26.62-.19-1.49-1.16-2.9-2.43-4.44-3.53-4.95-3.53-10.94-3.42-15.8.22-1.19.89-2.32,1.86-3.48,2.78-8.9,7.08-19.26,7.07-28.2-.02-1.48-1.17-2.91-2.43-4.49-3.45-4.45-2.91-10.11-2.8-14.45.27-1.65,1.17-3.15,2.54-4.75,3.77-8.25,6.31-18.8,6.26-26.95-.12-1.59-1.25-3.12-2.6-4.79-3.74-4.54-3.11-10.3-3.06-14.8.11-1.76,1.24-3.34,2.73-5.08,4.01-8.23,6.07-18.56,5.89-26.61-.44-1.48-1.17-2.91-2.42-4.45-3.5-4.79-3.37-10.75-3.29-15.48.19-1.19.88-2.34,1.83-3.45,2.82-8.07,7.22-21.1,6.92-28.54-.05-3.78-3.54-8.07-5.37-13.42-5.66-7.33-.4-13.1-6.93-13.26-14.45-.18-8.77-.04-17.55-.04-26.32h-.04Z"/>
  <path class="cls-1" d="M237.56,383.21c-5.43,0-10.86-1.97-15.82-5.9-.4-.31-.79-.63-1.18-.95-1.06-.86-2.06-1.68-3.11-2.37-3.5-2.29-7.98-2.2-11.41.22-.88.62-1.74,1.33-2.64,2.07-.67.56-1.35,1.11-2.03,1.64-9.24,7.07-21.12,7.02-30.26-.14-.54-.42-1.06-.85-1.59-1.28-1.04-.85-2.03-1.65-3.06-2.36-3.63-2.48-8.12-2.45-11.71.09-.87.61-1.71,1.31-2.6,2.04-.78.64-1.58,1.3-2.43,1.93-9.16,6.77-20.9,6.58-29.89-.48-.51-.41-1.02-.82-1.53-1.23-.96-.78-1.87-1.52-2.81-2.19-3.81-2.69-8.53-2.62-12.32.16-1.06.77-2.12,1.64-3.25,2.66-8.9,7.96-23.64,7.91-32.19-.1-3.32-3.11-7.04-4.68-11.71-4.93-8.68-.47-15.63-7.98-15.82-17.1-.13-6.15-.1-12.39-.07-18.43,0-1.83.02-3.66.02-5.5l-.03-2.45v-24.21c0-.59,0-1.17,0-1.76.06-2.96.84-5.18,2.32-6.6.83-.8,2.3-1.77,4.67-1.7,2.01.04,6.69.97,6.7,8.52.01,11.21.01,22.42.01,33.63v14.16c0,.32,0,.64,0,.95,0,.75-.02,1.45.03,2.12.29,4.7,3.41,4.77,4.43,4.79,6.7.13,12.51,2.6,17.77,7.55,4.61,4.33,11.03,4.32,15.62-.03,5.53-5.23,11.53-7.65,18.34-7.44,5.37.18,9.94,1.74,13.95,4.78.75.57,1.47,1.16,2.2,1.75.97.78,1.88,1.53,2.83,2.2,3.88,2.75,8.48,2.73,12.31-.06.76-.55,1.49-1.16,2.27-1.8.48-.39.96-.79,1.44-1.17,9.91-7.85,21.71-7.78,31.57.18l.57.46c2.96,2.4,5.52,4.49,9.03,4.37,2.64-.08,4.65-.73,6.34-2.03.71-.55,1.41-1.12,2.11-1.69.77-.63,1.53-1.25,2.32-1.86,8.94-6.9,20.97-6.91,29.93-.01.66.51,1.3,1.04,1.94,1.56.93.77,1.82,1.49,2.73,2.14,3.7,2.61,8.31,2.6,12.01-.02.86-.61,1.69-1.29,2.57-2.02.48-.39.95-.78,1.43-1.17,9.51-7.54,21.35-7.6,30.91-.17.53.41,1.06.84,1.58,1.26.95.77,1.84,1.49,2.77,2.14,3.77,2.62,8.27,2.59,12.03-.07.82-.59,1.62-1.24,2.47-1.94.51-.42,1.02-.84,1.54-1.25,9.53-7.47,21.37-7.52,30.9-.1.54.42,1.07.85,1.61,1.29.73.6,1.42,1.17,2.13,1.69,4.32,3.17,9.02,3.14,13.24-.07.71-.54,1.41-1.11,2.09-1.68.86-.71,1.75-1.44,2.69-2.13,4.32-3.19,9.1-4.7,14.19-4.49,3.85.16,6.76,2.89,6.94,6.5.09,1.82-.53,3.55-1.73,4.87-1.22,1.33-2.94,2.11-4.85,2.19-3.19.13-6,1.43-9.11,4.21-4.64,4.14-9.58,6.29-15.09,6.57-6.85.34-12.5-1.45-17.29-5.49-1.31-1.11-2.74-2.27-4.25-3.29-3.93-2.65-8.55-2.54-12.35.3-.75.56-1.47,1.15-2.19,1.75-.73.6-1.47,1.21-2.22,1.78-9.1,6.91-20.84,6.82-29.91-.21-.61-.47-1.2-.96-1.79-1.45-.88-.72-1.7-1.4-2.56-2.01-3.97-2.83-8.69-2.76-12.6.18-.72.54-1.43,1.11-2.12,1.69-.43.35-.86.7-1.29,1.05-4.92,3.92-10.33,5.87-15.75,5.88M109.44,366.95c3.18,0,6.36.98,9.16,2.95,1.1.77,2.12,1.61,3.11,2.42.48.39.97.79,1.46,1.17,7.13,5.6,16.07,5.75,23.33.39.74-.54,1.45-1.13,2.2-1.76.93-.77,1.89-1.56,2.93-2.29,5.4-3.81,12.42-3.86,17.88-.14,1.22.83,2.34,1.75,3.43,2.63.5.41,1,.81,1.5,1.21,7.14,5.59,16.42,5.63,23.64.1.64-.48,1.26-1,1.87-1.51.94-.78,1.91-1.58,2.96-2.32,5.26-3.72,12.13-3.84,17.5-.32,1.28.84,2.44,1.78,3.56,2.69.38.3.75.61,1.12.91,7.92,6.28,16.97,6.29,24.84.03.42-.33.82-.67,1.24-1,.76-.62,1.52-1.24,2.3-1.83,5.81-4.37,13.09-4.46,18.99-.26,1.01.72,1.95,1.49,2.86,2.24.55.45,1.1.91,1.67,1.35,7.08,5.48,16.23,5.55,23.33.17.7-.53,1.37-1.09,2.05-1.64.76-.63,1.56-1.29,2.39-1.91,5.64-4.22,12.77-4.39,18.62-.46,1.72,1.16,3.28,2.43,4.71,3.64,3.69,3.11,8.11,4.5,13.53,4.22,4.23-.21,8.07-1.92,11.76-5.2,2.55-2.28,6.63-5.33,12.49-5.58.47-.02.83-.17,1.08-.43.22-.25.34-.59.32-.96-.05-.95-.94-1.32-1.76-1.35-3.88-.16-7.41.96-10.75,3.44-.83.61-1.62,1.27-2.47,1.96-.74.61-1.48,1.22-2.25,1.8-6.11,4.66-13.48,4.71-19.72.13-.83-.61-1.61-1.25-2.36-1.87-.49-.41-.99-.81-1.5-1.2-7.59-5.9-16.65-5.86-24.24.09-.49.38-.97.78-1.44,1.17-.88.73-1.8,1.48-2.78,2.18-5.61,3.98-12.61,4.02-18.24.11-1.09-.76-2.11-1.58-3.09-2.38-.49-.4-.99-.8-1.49-1.19-7.6-5.91-16.66-5.86-24.23.15-.46.36-.91.73-1.35,1.1-.92.76-1.86,1.54-2.89,2.26-5.55,3.93-12.71,3.94-18.26.03-1.07-.76-2.08-1.58-3.04-2.37-.6-.49-1.19-.98-1.81-1.46-7.09-5.46-16.25-5.45-23.32,0-.75.58-1.48,1.17-2.21,1.77-.73.6-1.46,1.2-2.21,1.77-2.6,2.02-5.7,3.05-9.49,3.17-5.53.13-9.29-2.88-12.6-5.57l-.56-.45c-7.87-6.35-16.91-6.4-24.81-.15-.46.36-.91.73-1.35,1.1-.8.67-1.64,1.35-2.53,2-5.72,4.16-12.85,4.2-18.63.1-1.09-.77-2.12-1.61-3.11-2.41-.68-.55-1.36-1.11-2.06-1.63-3.09-2.35-6.65-3.55-10.86-3.69-5.29-.18-10.02,1.78-14.44,5.96-6.67,6.31-16.36,6.33-23.05.04-4.24-3.99-8.88-5.98-14.17-6.08-5.63-.11-9.36-3.89-9.73-9.86-.06-.87-.04-1.7-.04-2.51v-.89s0-14.16,0-14.16c0-11.21,0-22.41-.01-33.62,0-3.09-.85-3.11-1.41-3.12-.62,0-.75.14-.81.19-.3.29-.63,1.17-.65,2.8-.01.54,0,1.09,0,1.63v21.53h.04v2.71c0,2.66-.01,5.32-.02,7.98-.03,6-.06,12.21.06,18.28.13,6.2,4.93,11.5,10.7,11.81,5.93.32,10.88,2.41,15.12,6.39,6.59,6.17,17.99,6.18,24.89.01,1.26-1.13,2.45-2.1,3.65-2.98,2.87-2.11,6.18-3.17,9.48-3.17"/>
  <path class="cls-1" d="M338.63,349.58c-3.82.06-8.16-1.53-11.97-4.62-1.46-1.19-2.9-2.42-4.43-3.53-4.88-3.55-10.95-3.5-15.8.14-1.51,1.13-2.91,2.41-4.41,3.55-8.09,6.16-18.54,6.11-26.62-.1-1.49-1.15-2.9-2.43-4.42-3.54-4.92-3.59-10.93-3.55-15.79.06-1.3.96-2.51,2.05-3.78,3.05-8.59,6.76-18.96,6.8-27.58.11-1.49-1.16-2.91-2.42-4.46-3.49-4.72-3.26-10.49-3.21-15.13.12-1.53,1.1-2.93,2.39-4.42,3.54-8.44,6.48-18.95,6.4-27.27-.19-1.38-1.09-2.69-2.26-4.11-3.29-4.91-3.57-10.89-3.52-15.79.12-1.41,1.04-2.7,2.24-4.1,3.3-8.52,6.51-18.84,6.42-27.25-.21-.95-.75-1.92-1.48-2.84-2.28-2.88-2.5-6.19-3.63-10.03-3.56-6.07.11-12.15.09-18.22,0-9.78-.14-17.26-6.78-18.5-16.39-.15-1.16-.09-2.44.24-3.56.5-1.71,1.85-2.63,3.64-2.7,1.8-.07,3.14.79,3.85,2.42.37.85.5,1.81.66,2.73.92,5.47,4.22,8.6,9.72,9.12,1.07.1,2.16.06,3.24.06,5.67.02,11.34.06,17,.04,4.94-.01,9.22,1.71,13.03,4.76,1.47,1.18,2.9,2.43,4.45,3.51,4.69,3.28,10.46,3.27,15.13-.03,1.54-1.09,2.95-2.36,4.44-3.52,8.42-6.53,18.91-6.5,27.25.08,1.48,1.17,2.9,2.43,4.45,3.51,4.65,3.25,10.53,3.21,15.14-.09,1.42-1.02,2.74-2.18,4.12-3.27,8.56-6.77,19.01-6.81,27.56-.1,1.38,1.08,2.69,2.26,4.11,3.29,4.75,3.48,10.67,3.53,15.46.1,1.31-.94,2.59-1.95,3.79-3.03,7.75-6.96,20.48-6.95,28.23-.08,1.41,1.25,2.87,2.5,4.46,3.48,4.82,2.96,9.71,2.97,14.45-.18,1.79-1.19,3.38-2.68,5.1-3.98,7.96-6.02,18.31-6.05,26.31-.04,1.51,1.13,2.89,2.43,4.41,3.56,5.27,3.9,11.22,3.84,16.45-.17,1.61-1.23,3.12-2.58,4.74-3.78,3.7-2.74,7.86-4.14,12.48-3.94,2.5.11,4.23,1.76,4.32,3.94.09,2.17-1.47,4.13-4,4.22-4.35.15-7.62,2.26-10.79,4.92-5.58,4.68-9.37,6.05-16.53,5.92"/>
  <path class="cls-1" d="M288.79,352.43c-5.24,0-10.47-1.76-15.03-5.27-.67-.52-1.33-1.06-1.98-1.6-.82-.67-1.59-1.32-2.39-1.9-3.96-2.89-8.67-2.87-12.58.04-.71.52-1.39,1.09-2.12,1.7-.53.44-1.06.88-1.6,1.3-9.51,7.49-21.36,7.54-30.91.12-.54-.42-1.07-.85-1.6-1.28-.93-.76-1.82-1.48-2.74-2.12-3.79-2.62-8.28-2.59-12.01.09-.8.57-1.57,1.21-2.38,1.89-.65.54-1.3,1.08-1.97,1.59-9.35,7.18-21.36,7.1-30.59-.21-.52-.42-1.04-.84-1.55-1.27-.84-.7-1.64-1.36-2.47-1.96-3.94-2.87-8.64-2.82-12.58.1-.69.51-1.36,1.07-2.07,1.66-.66.55-1.32,1.1-2,1.62-9.49,7.25-21.19,7.15-30.56-.24l-.67-.53c-.75-.58-1.52-1.18-2.27-1.84-2.34-2.03-4.97-2.96-8.21-2.9-5.57.1-11.56.1-18.3,0-11.05-.16-19.75-7.86-21.15-18.75-.2-1.58-.09-3.24.33-4.66.81-2.79,3.11-4.53,6.13-4.65,2.88-.12,5.29,1.4,6.44,4.04.46,1.07.64,2.14.8,3.09l.04.27c.72,4.29,3.05,6.47,7.31,6.88.67.06,1.39.06,2.16.05h.83s4.54.01,4.54.01c4.15.02,8.3.04,12.45.02h.07c5.29,0,10.22,1.8,14.66,5.35.44.35.87.71,1.3,1.06,1.02.84,2,1.64,3,2.35,3.77,2.64,8.26,2.63,12.02-.02.86-.61,1.69-1.3,2.58-2.02.59-.48,1.17-.96,1.77-1.43,9.33-7.23,21.33-7.2,30.58.09.52.41,1.04.84,1.56,1.26.94.78,1.84,1.51,2.76,2.16,3.71,2.59,8.32,2.57,12.02-.08.86-.62,1.69-1.3,2.57-2.03.48-.39.96-.78,1.44-1.17,9.54-7.55,21.38-7.59,30.91-.11.57.45,1.12.91,1.68,1.37.8.67,1.56,1.3,2.35,1.87,3.84,2.81,8.43,2.85,12.29.09,1.29-.92,2.48-1.87,3.56-2.84,8.75-7.85,23.03-7.9,31.83-.09,1.28,1.13,2.64,2.31,4.09,3.2,3.97,2.43,7.74,2.39,11.53-.13.98-.65,1.92-1.43,2.92-2.24.67-.56,1.35-1.11,2.05-1.64,8.96-6.78,20.57-6.8,29.57-.04.8.59,1.54,1.22,2.26,1.82.73.62,1.42,1.2,2.13,1.72,4.32,3.2,8.88,3.16,13.19-.14.71-.54,1.39-1.1,2.08-1.67.87-.71,1.76-1.44,2.7-2.14,4.3-3.19,9.07-4.69,14.21-4.47,3.85.17,6.75,2.91,6.91,6.52.08,1.82-.54,3.56-1.77,4.87-1.22,1.33-2.95,2.1-4.84,2.16-3.5.12-6.18,1.8-9.14,4.29-6.07,5.1-10.52,6.69-18.28,6.56-.06,0-.12,0-.18,0-4.49,0-9.39-1.9-13.49-5.23l-1.06-.87c-1.11-.91-2.16-1.78-3.26-2.58-3.95-2.87-8.65-2.82-12.58.12-.73.55-1.44,1.14-2.19,1.76-.73.61-1.46,1.21-2.21,1.78-4.52,3.44-9.7,5.16-14.87,5.16M263.11,336.09c3.26,0,6.53,1.07,9.46,3.2.94.68,1.81,1.41,2.66,2.11.6.5,1.2,1,1.82,1.48,7.08,5.45,16.24,5.49,23.33.09.69-.53,1.36-1.08,2.02-1.64.77-.64,1.56-1.3,2.41-1.93,5.84-4.38,13.13-4.44,19.01-.16,1.23.89,2.39,1.85,3.52,2.77l1.03.85c3.15,2.56,6.81,4.02,10.07,4.02h.25c6.49.13,9.65-1.02,14.74-5.29,3.15-2.64,7.08-5.37,12.43-5.56.46-.01.82-.16,1.06-.43.23-.25.35-.59.33-.97-.04-.94-.93-1.31-1.74-1.35-3.9-.17-7.43.95-10.75,3.41-.83.62-1.64,1.28-2.49,1.98-.73.6-1.47,1.2-2.22,1.78-6.15,4.71-13.52,4.78-19.7.19-.84-.63-1.63-1.29-2.39-1.93-.7-.59-1.35-1.14-2.03-1.64-7.02-5.27-16.06-5.26-23.05.03-.64.48-1.26.99-1.88,1.5-1.06.87-2.15,1.77-3.35,2.57-5.57,3.71-11.58,3.79-17.36.24-1.82-1.12-3.45-2.53-4.84-3.76-6.7-5.94-17.97-5.91-24.63.06-1.22,1.1-2.58,2.18-4.03,3.21-5.77,4.12-12.91,4.07-18.63-.12-.92-.67-1.77-1.38-2.6-2.07-.52-.43-1.04-.86-1.57-1.28-7.57-5.94-16.62-5.91-24.21.1-.46.36-.91.74-1.37,1.11-.91.75-1.85,1.52-2.86,2.24-5.53,3.96-12.7,4-18.26.11-1.1-.77-2.12-1.6-3.1-2.41-.49-.4-.97-.8-1.47-1.19-7.35-5.78-16.51-5.81-23.92-.06-.56.43-1.1.88-1.64,1.33-.92.75-1.87,1.54-2.89,2.26-5.62,3.98-12.61,3.99-18.25.04-1.18-.82-2.28-1.72-3.34-2.6-.41-.34-.83-.68-1.24-1.01-3.51-2.8-7.19-4.17-11.27-4.17h-.05c-4.16.01-8.33,0-12.49-.02l-4.53-.02h-.77c-.87,0-1.77.02-2.71-.07-6.7-.64-11.01-4.68-12.13-11.37l-.05-.29c-.12-.7-.22-1.36-.43-1.82-.26-.62-.58-.8-1.26-.79-.95.04-1.07.47-1.15.75-.21.72-.26,1.61-.15,2.46,1.07,8.27,7.44,13.9,15.86,14.03,6.68.09,12.61.09,18.13,0,4.53-.06,8.54,1.34,11.85,4.22.67.57,1.36,1.12,2.05,1.66l.69.54c7.44,5.87,16.39,5.94,23.93.18.62-.47,1.22-.97,1.82-1.47.73-.61,1.5-1.25,2.3-1.85,5.85-4.35,13.13-4.4,18.99-.13.96.7,1.86,1.45,2.74,2.17.48.4.97.8,1.46,1.19,7.33,5.8,16.5,5.87,23.94.16.62-.47,1.21-.96,1.8-1.46.85-.71,1.74-1.44,2.69-2.13,5.58-4,12.57-4.06,18.24-.15,1.1.75,2.11,1.58,3.08,2.37.5.41,1,.81,1.5,1.2,7.6,5.91,16.67,5.86,24.24-.1.5-.39.99-.8,1.49-1.22.75-.62,1.53-1.27,2.35-1.88,2.93-2.18,6.23-3.27,9.54-3.27"/>
  <path class="cls-1" d="M14.91,299.06c0-2.69-.09-5.38.02-8.06.14-3.23,1.63-4.91,4.13-4.95,2.63-.04,4.28,1.8,4.33,5.18.08,5.51.09,11.03,0,16.53-.05,3.06-1.76,4.95-4.14,5.01-2.42.05-4.16-1.77-4.3-4.84-.14-2.95-.03-5.92-.03-8.87"/>
  <path class="cls-1" d="M19.14,315.48c-3.87,0-6.69-3.03-6.89-7.42-.1-2.11-.07-4.23-.05-6.28,0-.9.01-1.81.01-2.71,0-.8,0-1.61-.01-2.41-.02-1.88-.04-3.83.04-5.77.23-5.48,3.66-7.49,6.79-7.54,1.88-.02,3.56.59,4.81,1.81,1.01.98,2.22,2.82,2.27,6.04.09,5.87.09,11.31,0,16.62-.08,4.42-2.87,7.57-6.79,7.66-.06,0-.11,0-.17,0M19.16,288.75h-.04c-.55,0-1.38.02-1.48,2.36-.07,1.8-.06,3.59-.04,5.48,0,.82.01,1.64.01,2.46,0,.93,0,1.85-.01,2.77-.02,2.06-.04,4.01.05,5.98.05,1.04.35,2.25,1.53,2.26,1.32-.03,1.49-1.65,1.5-2.35.09-5.25.09-10.63,0-16.44-.01-1.06-.24-1.87-.62-2.24-.08-.07-.3-.28-.92-.28"/>
</svg>