<?xml version="1.0" encoding="UTF-8"?>
<svg id="Capa_1" data-name="Capa 1" xmlns="http://www.w3.org/2000/svg" viewBox="0 0 502.1 502.12">
  <defs>
    <style>
      .cls-1 {
        fill: #034b86;
      }
    </style>
  </defs>
  <g>
    <path class="cls-1" d="M85.31,0h331.48c12.3,4.12,18.33,13.09,20.32,25.55.97,6.09,2.77,12.06,4.22,18.08,1.85,7.7,3.73,15.4,5.64,23.25,4.28,0,8.02-.09,11.76.02,8.54.24,15.75,3.45,20.14,10.92,2.72,4.64,6.21,6.35,11.24,5.79,5.14-.57,9.23,1.13,11.99,5.64v5.88c-1.79,1.57-3.33,3.76-5.41,4.6-9.66,3.88-23.73-.85-29.75-9.64-4.6-6.72-7.3-7.72-15.5-5.78-.05.15-.18.33-.15.46,2.69,11.42,5.44,22.82,8.09,34.25,2.61,11.3-1.58,22.03-10.74,27.72-1.65,1.02-3.39,1.88-4.8,2.66v126.85c9.99,0,19.59-.16,29.19.04,12.46.25,21.28,6.35,26.62,17.52.97,2.02,1.65,4.18,2.46,6.28v10.79c-5.62,17.99-18.19,25.29-36.52,23.81-1.7-.14-3.43.16-5.4.27v6.47c0,44.12.01,88.24,0,132.36,0,18.56-9.83,28.32-28.46,28.32H70.42c-18.68,0-28.49-9.72-28.5-28.29-.02-44.28,0-88.57,0-132.85v-6.4c-5.13,0-9.66.17-14.19-.03C12.31,333.86.14,321.17,0,305.78c-.14-15.68,11.87-28.67,27.56-29.38,8.32-.38,16.67-.13,25-.17,1.9,0,3.79,0,5.89,0,0-42.72,0-84.68,0-126.64-15.19-9.17-18.96-17.52-15.11-33.57,7.23-30.14,14.81-60.2,21.55-90.46,2.74-12.28,8.08-21.45,20.42-25.57M58.65,435.25c0,13.11,0,25.5,0,37.9,0,10.05,2.25,12.26,12.45,12.26,119.96,0,239.91,0,359.87,0,1.64,0,3.29.13,4.9-.11,3.94-.58,6.79-2.72,7.32-6.77.41-3.13.08-6.36.08-9.83-16.42,0-32.25.03-48.08-.02-6.54-.02-10.26-3.29-10.1-8.67.15-5.14,3.71-8,10.16-8.02,14.22-.03,28.44,0,42.66,0h5.13v-50.22h-6.26c-13.89,0-27.78.05-41.68-.03-5.81-.03-9.1-2.44-9.87-6.83-1.01-5.8,2.79-9.84,9.65-9.88,14.38-.09,28.76-.02,43.15-.05,1.71,0,3.42-.18,5.14-.29v-49.59H58.98v16.32h5.63c14.05,0,28.11.02,42.16,0,4.62,0,8.52,1.24,9.92,6.18,1.67,5.85-2.34,10.5-9.28,10.56-14.38.12-28.76.04-43.15.04h-5.23v50.32h7.15c14.05,0,28.11-.06,42.16.06,5.29.04,8.54,3.27,8.66,8.01.11,4.71-3.08,8.11-8.21,8.59-1.78.17-3.59.07-5.39.07-14.68,0-29.36,0-44.74,0M302.62,275.84h90.37v-124.73h-133.24v26.12c12.09,5.53,17,15.01,16.48,27.71-.16,4.04-.03,8.09-.03,13,4.88,0,9.34-.6,13.58.11,14.27,2.4,22.38,16.63,18.76,32.28-1.94,8.37-3.89,16.74-5.93,25.5M225.96,217.65c-.42-16.32-2.12-32.63,16.24-40.25v-26.36H109.03v124.76h90.21c-.26-1.58-.39-2.69-.63-3.78-1.93-8.59-4.2-17.12-5.76-25.78-2.66-14.75,8.66-28.27,23.58-28.58,2.91-.06,5.81,0,9.53,0M251.04,317.92c72.38,0,144.76,0,217.14,0,2.12,0,4.26.09,6.36-.16,7.78-.95,12.64-8.96,10.03-16.36-2.14-6.07-6.41-8.41-15.41-8.41-145.42,0-290.83,0-436.25,0-1.79,0-3.61-.04-5.38.18-7.79.95-12.65,8.93-10.04,16.34,2.06,5.85,6.38,8.4,14.43,8.4,73.04.01,146.07,0,219.1,0M115.47,16.71c-7.6,0-14.75,0-21.9,0-7.5.01-9.5,1.59-11.22,8.75-5.11,21.23-10.23,42.46-15.34,63.69-2.63,10.93-5.3,21.86-7.86,32.81-1.48,6.36.87,11.34,6.21,11.62,9.23.48,18.5.13,28.14.13,7.33-39.02,14.6-77.74,21.97-117M408.63,133.92c8.48,0,16.45.04,24.41,0,8.66-.05,11.73-4.07,9.7-12.61-2.38-9.98-4.82-19.96-7.21-29.94-5.31-22.18-10.62-44.36-15.88-66.55-.88-3.72-2.37-7.49-6.41-7.72-8.69-.49-17.41-.15-26.52-.15,7.33,39.11,14.56,77.68,21.92,116.98M192.99,133.59c2.44-39.02,4.85-77.71,7.28-116.56h-25.55c-4.86,38.94-9.69,77.59-14.56,116.56h32.83ZM327.37,17.01h-25.56c2.45,39.02,4.86,77.71,7.29,116.49h32.82c-4.89-39.1-9.72-77.73-14.56-116.49M391.6,133.74c-7.38-39.31-14.65-78.02-21.93-116.77h-25.44c4.89,39.09,9.76,77.88,14.62,116.77h32.75ZM132.41,16.98c-7.28,38.84-14.55,77.65-21.84,116.58h32.69c4.87-38.98,9.71-77.63,14.58-116.58h-25.43ZM209.77,133.39h32.49V17.1h-25.22c-2.44,38.94-4.85,77.51-7.27,116.29M292.33,133.63c-2.44-39.02-4.86-77.72-7.3-116.63h-25.18v116.63h32.48ZM276.49,235.01c-1.09,12.67-2.88,16.34-8.6,15.92-10.71-.8-7.71-9.72-8.78-16.26h-16.5c0,2.73.12,5.16-.02,7.58-.3,5.27-3.43,8.63-8.03,8.77-4.74.15-8.26-3.33-8.63-8.74-.17-2.53-.03-5.08-.03-7.92-3.35,0-5.95-.07-8.53.02-4.96.16-8.93,3.71-8.06,8.41,2.06,11.17,4.86,22.21,7.34,33.28h68.2c.3-.57.63-.98.74-1.43,1.9-7.93,3.5-15.95,5.72-23.79,3.97-14.03-.49-17.78-14.07-16.36-.14.02-.27.18-.75.52M75.73,275.94h16.01v-124.97h-16.01v124.97ZM410.23,275.9h16.09v-124.88h-16.09v124.88ZM259.14,217.42c0-6.11.32-12.11-.11-18.06-.31-4.18-4.21-7.16-8.19-6.84-4.14.32-7.45,2.43-7.77,6.75-.45,5.95-.12,11.96-.12,18.16h16.19Z"/>
    <path class="cls-1" d="M180.01,418.51c9.14,0,18.28-.04,27.42.01,6.3.04,10.06,3.11,10.14,8.14.09,4.99-3.8,8.53-9.85,8.56-18.61.07-37.21.08-55.82,0-5.78-.03-9.53-3.43-9.63-8.26-.1-5.06,3.67-8.37,9.83-8.41,9.3-.07,18.61-.02,27.91-.02"/>
    <path class="cls-1" d="M322.23,468.69c-9.14,0-18.28.04-27.42-.01-6.4-.03-10.41-3.43-10.29-8.59.11-5.01,3.9-8.09,10.17-8.1,18.28-.03,36.56-.03,54.84,0,6.51,0,10.42,3.29,10.29,8.47-.12,4.97-4.03,8.19-10.17,8.23-9.14.06-18.28.01-27.42.01"/>
    <path class="cls-1" d="M179.86,368.18c-9.14,0-18.28.06-27.42-.02-6.36-.06-10.05-3.1-10.17-8.13-.12-5.17,3.79-8.57,10.28-8.59,18.27-.06,36.55-.06,54.83,0,6.25.03,10.06,3.22,10.19,8.2.14,5.17-3.74,8.47-10.29,8.52-9.14.07-18.28.02-27.42.02"/>
    <path class="cls-1" d="M121.59,384.99c9.14,0,18.27-.07,27.41.02,6.36.07,9.91,3.16,9.89,8.33-.01,5.15-3.62,8.36-9.92,8.38-18.43.08-36.87.08-55.31,0-6.17-.03-9.97-3.4-9.97-8.41,0-5.01,3.76-8.24,10-8.3,9.3-.09,18.6-.02,27.9-.02"/>
    <path class="cls-1" d="M322.6,401.75c-9.47,0-18.93.1-28.4-.03-6.06-.09-9.88-3.69-9.68-8.7.18-4.54,3.6-7.91,8.83-7.95,19.26-.12,38.52-.13,57.77,0,5.23.03,8.59,3.47,8.69,8.07.1,4.73-3.39,8.4-8.82,8.52-9.46.21-18.93.06-28.4.06v.02Z"/>
    <path class="cls-1" d="M121.31,451.98c9.3,0,18.6-.04,27.91.01,6.02.04,9.52,3.02,9.66,8.02.15,5.18-3.55,8.63-9.64,8.65-18.61.07-37.21.07-55.82,0-6.03-.02-9.89-3.58-9.74-8.62.15-4.88,3.84-8.02,9.72-8.06,9.3-.06,18.6-.01,27.91-.01"/>
    <path class="cls-1" d="M380.17,368.18c-8.97,0-17.95.06-26.92-.02-6.43-.06-9.97-3.03-10.06-8.17-.09-5.32,3.61-8.53,10.24-8.55,18.27-.06,36.55-.06,54.82,0,6.26.02,10.03,3.22,10.14,8.24.11,5.17-3.76,8.43-10.32,8.48-9.3.07-18.6.02-27.9.02"/>
    <path class="cls-1" d="M221.82,468.69c-9.14,0-18.27.04-27.41-.01-6.59-.03-10.26-3.19-10.17-8.59.09-5.22,3.56-8.09,10.03-8.1,18.44-.03,36.88-.04,55.31,0,6.14.02,9.85,3.33,9.74,8.46-.11,4.94-3.75,8.16-9.61,8.22-9.3.09-18.6.02-27.9.02"/>
    <path class="cls-1" d="M280.43,435.23c-9.62,0-19.25.08-28.87-.05-4.1-.05-7.27-1.9-8.43-6.11-1.01-3.68,0-6.94,3.2-9,1.53-.99,3.66-1.47,5.52-1.48,18.92-.1,37.84-.11,56.76-.04,5.72.02,9.05,3.04,9.23,7.92.18,5.07-3.29,8.63-9.03,8.73-9.46.17-18.92.04-28.38.04"/>
    <path class="cls-1" d="M380.89,418.51c9.3,0,18.6-.06,27.9.02,5.85.05,9.54,3.29,9.6,8.17.06,4.88-3.65,8.46-9.39,8.5-18.76.1-37.53.09-56.29,0-5.85-.03-9.46-3.36-9.52-8.31-.06-5.21,3.49-8.32,9.79-8.37,9.3-.07,18.6-.02,27.9-.02"/>
    <path class="cls-1" d="M280.46,368.18c-9.13,0-18.26.06-27.4-.01-6.63-.05-10.36-3.19-10.28-8.44.07-5.1,3.71-8.26,10.01-8.28,18.43-.07,36.86-.1,55.29.02,7.73.05,12.04,6.23,8.86,12.24-1.83,3.47-4.94,4.48-8.59,4.48-9.3,0-18.59,0-27.89,0"/>
    <path class="cls-1" d="M222.12,384.99c8.81,0,17.61-.03,26.42,0,7.05.04,10.85,3.07,10.76,8.46-.09,5.21-3.85,8.27-10.52,8.29-18.27.05-36.53.02-54.8.01-4.48,0-8.14-1.52-9.45-6.14-1.07-3.81,0-7.33,3.62-9.23,1.9-1.01,4.35-1.3,6.57-1.33,9.13-.14,18.26-.06,27.4-.06"/>
  </g>
  <g>
    <path class="cls-1" d="M85.31,0h331.48c12.3,4.12,18.33,13.09,20.32,25.55.97,6.09,2.77,12.06,4.22,18.08,1.85,7.7,3.73,15.4,5.64,23.25,4.28,0,8.02-.09,11.76.02,8.54.24,15.75,3.45,20.14,10.92,2.72,4.64,6.21,6.35,11.24,5.79,5.14-.57,9.23,1.13,11.99,5.64v5.88c-1.79,1.57-3.33,3.76-5.41,4.6-9.66,3.88-23.73-.85-29.75-9.64-4.6-6.72-7.3-7.72-15.5-5.78-.05.15-.18.33-.15.46,2.69,11.42,5.44,22.82,8.09,34.25,2.61,11.3-1.58,22.03-10.74,27.72-1.65,1.02-3.39,1.88-4.8,2.66v126.85c9.99,0,19.59-.16,29.19.04,12.46.25,21.28,6.35,26.62,17.52.97,2.02,1.65,4.18,2.46,6.28v10.79c-5.62,17.99-18.19,25.29-36.52,23.81-1.7-.14-3.43.16-5.4.27v6.47c0,44.12.01,88.24,0,132.36,0,18.56-9.83,28.32-28.46,28.32H70.42c-18.68,0-28.49-9.72-28.5-28.29-.02-44.28,0-88.57,0-132.85v-6.4c-5.13,0-9.66.17-14.19-.03C12.31,333.86.14,321.17,0,305.78c-.14-15.68,11.87-28.67,27.56-29.38,8.32-.38,16.67-.13,25-.17,1.9,0,3.79,0,5.89,0,0-42.72,0-84.68,0-126.64-15.19-9.17-18.96-17.52-15.11-33.57,7.23-30.14,14.81-60.2,21.55-90.46,2.74-12.28,8.08-21.45,20.42-25.57M58.65,435.25c0,13.11,0,25.5,0,37.9,0,10.05,2.25,12.26,12.45,12.26,119.96,0,239.91,0,359.87,0,1.64,0,3.29.13,4.9-.11,3.94-.58,6.79-2.72,7.32-6.77.41-3.13.08-6.36.08-9.83-16.42,0-32.25.03-48.08-.02-6.54-.02-10.26-3.29-10.1-8.67.15-5.14,3.71-8,10.16-8.02,14.22-.03,28.44,0,42.66,0h5.13v-50.22h-6.26c-13.89,0-27.78.05-41.68-.03-5.81-.03-9.1-2.44-9.87-6.83-1.01-5.8,2.79-9.84,9.65-9.88,14.38-.09,28.76-.02,43.15-.05,1.71,0,3.42-.18,5.14-.29v-49.59H58.98v16.32h5.63c14.05,0,28.11.02,42.16,0,4.62,0,8.52,1.24,9.92,6.18,1.67,5.85-2.34,10.5-9.28,10.56-14.38.12-28.76.04-43.15.04h-5.23v50.32h7.15c14.05,0,28.11-.06,42.16.06,5.29.04,8.54,3.27,8.66,8.01.11,4.71-3.08,8.11-8.21,8.59-1.78.17-3.59.07-5.39.07-14.68,0-29.36,0-44.74,0M302.62,275.84h90.37v-124.73h-133.24v26.12c12.09,5.53,17,15.01,16.48,27.71-.16,4.04-.03,8.09-.03,13,4.88,0,9.34-.6,13.58.11,14.27,2.4,22.38,16.63,18.76,32.28-1.94,8.37-3.89,16.74-5.93,25.5M225.96,217.65c-.42-16.32-2.12-32.63,16.24-40.25v-26.36H109.03v124.76h90.21c-.26-1.58-.39-2.69-.63-3.78-1.93-8.59-4.2-17.12-5.76-25.78-2.66-14.75,8.66-28.27,23.58-28.58,2.91-.06,5.81,0,9.53,0M251.04,317.92c72.38,0,144.76,0,217.14,0,2.12,0,4.26.09,6.36-.16,7.78-.95,12.64-8.96,10.03-16.36-2.14-6.07-6.41-8.41-15.41-8.41-145.42,0-290.83,0-436.25,0-1.79,0-3.61-.04-5.38.18-7.79.95-12.65,8.93-10.04,16.34,2.06,5.85,6.38,8.4,14.43,8.4,73.04.01,146.07,0,219.1,0M115.47,16.71c-7.6,0-14.75,0-21.9,0-7.5.01-9.5,1.59-11.22,8.75-5.11,21.23-10.23,42.46-15.34,63.69-2.63,10.93-5.3,21.86-7.86,32.81-1.48,6.36.87,11.34,6.21,11.62,9.23.48,18.5.13,28.14.13,7.33-39.02,14.6-77.74,21.97-117M408.63,133.92c8.48,0,16.45.04,24.41,0,8.66-.05,11.73-4.07,9.7-12.61-2.38-9.98-4.82-19.96-7.21-29.94-5.31-22.18-10.62-44.36-15.88-66.55-.88-3.72-2.37-7.49-6.41-7.72-8.69-.49-17.41-.15-26.52-.15,7.33,39.11,14.56,77.68,21.92,116.98M192.99,133.59c2.44-39.02,4.85-77.71,7.28-116.56h-25.55c-4.86,38.94-9.69,77.59-14.56,116.56h32.83ZM327.37,17.01h-25.56c2.45,39.02,4.86,77.71,7.29,116.49h32.82c-4.89-39.1-9.72-77.73-14.56-116.49M391.6,133.74c-7.38-39.31-14.65-78.02-21.93-116.77h-25.44c4.89,39.09,9.76,77.88,14.62,116.77h32.75ZM132.41,16.98c-7.28,38.84-14.55,77.65-21.84,116.58h32.69c4.87-38.98,9.71-77.63,14.58-116.58h-25.43ZM209.77,133.39h32.49V17.1h-25.22c-2.44,38.94-4.85,77.51-7.27,116.29M292.33,133.63c-2.44-39.02-4.86-77.72-7.3-116.63h-25.18v116.63h32.48ZM276.49,235.01c-1.09,12.67-2.88,16.34-8.6,15.92-10.71-.8-7.71-9.72-8.78-16.26h-16.5c0,2.73.12,5.16-.02,7.58-.3,5.27-3.43,8.63-8.03,8.77-4.74.15-8.26-3.33-8.63-8.74-.17-2.53-.03-5.08-.03-7.92-3.35,0-5.95-.07-8.53.02-4.96.16-8.93,3.71-8.06,8.41,2.06,11.17,4.86,22.21,7.34,33.28h68.2c.3-.57.63-.98.74-1.43,1.9-7.93,3.5-15.95,5.72-23.79,3.97-14.03-.49-17.78-14.07-16.36-.14.02-.27.18-.75.52M75.73,275.94h16.01v-124.97h-16.01v124.97ZM410.23,275.9h16.09v-124.88h-16.09v124.88ZM259.14,217.42c0-6.11.32-12.11-.11-18.06-.31-4.18-4.21-7.16-8.19-6.84-4.14.32-7.45,2.43-7.77,6.75-.45,5.95-.12,11.96-.12,18.16h16.19Z"/>
    <path class="cls-1" d="M180.01,418.51c9.14,0,18.28-.04,27.42.01,6.3.04,10.06,3.11,10.14,8.14.09,4.99-3.8,8.53-9.85,8.56-18.61.07-37.21.08-55.82,0-5.78-.03-9.53-3.43-9.63-8.26-.1-5.06,3.67-8.37,9.83-8.41,9.3-.07,18.61-.02,27.91-.02"/>
    <path class="cls-1" d="M322.23,468.69c-9.14,0-18.28.04-27.42-.01-6.4-.03-10.41-3.43-10.29-8.59.11-5.01,3.9-8.09,10.17-8.1,18.28-.03,36.56-.03,54.84,0,6.51,0,10.42,3.29,10.29,8.47-.12,4.97-4.03,8.19-10.17,8.23-9.14.06-18.28.01-27.42.01"/>
    <path class="cls-1" d="M179.86,368.18c-9.14,0-18.28.06-27.42-.02-6.36-.06-10.05-3.1-10.17-8.13-.12-5.17,3.79-8.57,10.28-8.59,18.27-.06,36.55-.06,54.83,0,6.25.03,10.06,3.22,10.19,8.2.14,5.17-3.74,8.47-10.29,8.52-9.14.07-18.28.02-27.42.02"/>
    <path class="cls-1" d="M121.59,384.99c9.14,0,18.27-.07,27.41.02,6.36.07,9.91,3.16,9.89,8.33-.01,5.15-3.62,8.36-9.92,8.38-18.43.08-36.87.08-55.31,0-6.17-.03-9.97-3.4-9.97-8.41,0-5.01,3.76-8.24,10-8.3,9.3-.09,18.6-.02,27.9-.02"/>
    <path class="cls-1" d="M322.6,401.75c-9.47,0-18.93.1-28.4-.03-6.06-.09-9.88-3.69-9.68-8.7.18-4.54,3.6-7.91,8.83-7.95,19.26-.12,38.52-.13,57.77,0,5.23.03,8.59,3.47,8.69,8.07.1,4.73-3.39,8.4-8.82,8.52-9.46.21-18.93.06-28.4.06v.02Z"/>
    <path class="cls-1" d="M121.31,451.98c9.3,0,18.6-.04,27.91.01,6.02.04,9.52,3.02,9.66,8.02.15,5.18-3.55,8.63-9.64,8.65-18.61.07-37.21.07-55.82,0-6.03-.02-9.89-3.58-9.74-8.62.15-4.88,3.84-8.02,9.72-8.06,9.3-.06,18.6-.01,27.91-.01"/>
    <path class="cls-1" d="M380.17,368.18c-8.97,0-17.95.06-26.92-.02-6.43-.06-9.97-3.03-10.06-8.17-.09-5.32,3.61-8.53,10.24-8.55,18.27-.06,36.55-.06,54.82,0,6.26.02,10.03,3.22,10.14,8.24.11,5.17-3.76,8.43-10.32,8.48-9.3.07-18.6.02-27.9.02"/>
    <path class="cls-1" d="M221.82,468.69c-9.14,0-18.27.04-27.41-.01-6.59-.03-10.26-3.19-10.17-8.59.09-5.22,3.56-8.09,10.03-8.1,18.44-.03,36.88-.04,55.31,0,6.14.02,9.85,3.33,9.74,8.46-.11,4.94-3.75,8.16-9.61,8.22-9.3.09-18.6.02-27.9.02"/>
    <path class="cls-1" d="M280.43,435.23c-9.62,0-19.25.08-28.87-.05-4.1-.05-7.27-1.9-8.43-6.11-1.01-3.68,0-6.94,3.2-9,1.53-.99,3.66-1.47,5.52-1.48,18.92-.1,37.84-.11,56.76-.04,5.72.02,9.05,3.04,9.23,7.92.18,5.07-3.29,8.63-9.03,8.73-9.46.17-18.92.04-28.38.04"/>
    <path class="cls-1" d="M380.89,418.51c9.3,0,18.6-.06,27.9.02,5.85.05,9.54,3.29,9.6,8.17.06,4.88-3.65,8.46-9.39,8.5-18.76.1-37.53.09-56.29,0-5.85-.03-9.46-3.36-9.52-8.31-.06-5.21,3.49-8.32,9.79-8.37,9.3-.07,18.6-.02,27.9-.02"/>
    <path class="cls-1" d="M280.46,368.18c-9.13,0-18.26.06-27.4-.01-6.63-.05-10.36-3.19-10.28-8.44.07-5.1,3.71-8.26,10.01-8.28,18.43-.07,36.86-.1,55.29.02,7.73.05,12.04,6.23,8.86,12.24-1.83,3.47-4.94,4.48-8.59,4.48-9.3,0-18.59,0-27.89,0"/>
    <path class="cls-1" d="M222.12,384.99c8.81,0,17.61-.03,26.42,0,7.05.04,10.85,3.07,10.76,8.46-.09,5.21-3.85,8.27-10.52,8.29-18.27.05-36.53.02-54.8.01-4.48,0-8.14-1.52-9.45-6.14-1.07-3.81,0-7.33,3.62-9.23,1.9-1.01,4.35-1.3,6.57-1.33,9.13-.14,18.26-.06,27.4-.06"/>
  </g>
</svg>